  0
SECTION
  2
HEADER
  9
$ACADVER
  1
AC1018
  9
$ACADMAINTVER
 70
     0
  9
$DWGCODEPAGE
  3
BIG5
  9
$INSBASE
 10
0.0
 20
0.0
 30
0.0
  9
$EXTMIN
 10
-0.5
 20
-0.5
 30
-0.5
  9
$EXTMAX
 10
5.0
 20
5.0
 30
5.0
  9
$LIMMIN
 10
-0.5
 20
-0.5
  9
$LIMMAX
 10
5.0
 20
5.0
  9
$ORTHOMODE
 70
     0
  9
$REGENMODE
 70
     1
  9
$FILLMODE
 70
     1
  9
$QTEXTMODE
 70
     0
  9
$MIRRTEXT
 70
     1
  9
$LTSCALE
 40
1.0
  9
$ATTMODE
 70
     1
  9
$TEXTSIZE
 40
0.2
  9
$TRACEWID
 40
0.05
  9
$TEXTSTYLE
  7
Standard
  9
$CLAYER
  8
0
  9
$CELTYPE
  6
ByLayer
  9
$CECOLOR
 62
   256
  9
$CELTSCALE
 40
1.0
  9
$DISPSILH
 70
     0
  9
$DIMSCALE
 40
1.0
  9
$DIMASZ
 40
0.18
  9
$DIMEXO
 40
0.0625
  9
$DIMDLI
 40
0.38
  9
$DIMRND
 40
0.0
  9
$DIMDLE
 40
0.0
  9
$DIMEXE
 40
0.18
  9
$DIMTP
 40
0.0
  9
$DIMTM
 40
0.0
  9
$DIMTXT
 40
0.18
  9
$DIMCEN
 40
0.09
  9
$DIMTSZ
 40
0.0
  9
$DIMTOL
 70
     0
  9
$DIMLIM
 70
     0
  9
$DIMTIH
 70
     1
  9
$DIMTOH
 70
     1
  9
$DIMSE1
 70
     0
  9
$DIMSE2
 70
     0
  9
$DIMTAD
 70
     0
  9
$DIMZIN
 70
     0
  9
$DIMBLK
  1

  9
$DIMASO
 70
     1
  9
$DIMSHO
 70
     1
  9
$DIMPOST
  1

  9
$DIMAPOST
  1

  9
$DIMALT
 70
     0
  9
$DIMALTD
 70
     2
  9
$DIMALTF
 40
25.4
  9
$DIMLFAC
 40
1.0
  9
$DIMTOFL
 70
     0
  9
$DIMTVP
 40
0.0
  9
$DIMTIX
 70
     0
  9
$DIMSOXD
 70
     0
  9
$DIMSAH
 70
     0
  9
$DIMBLK1
  1

  9
$DIMBLK2
  1

  9
$DIMSTYLE
  2
Standard
  9
$DIMCLRD
 70
     0
  9
$DIMCLRE
 70
     0
  9
$DIMCLRT
 70
     0
  9
$DIMTFAC
 40
1.0
  9
$DIMGAP
 40
0.09
  9
$DIMJUST
 70
     0
  9
$DIMSD1
 70
     0
  9
$DIMSD2
 70
     0
  9
$DIMTOLJ
 70
     1
  9
$DIMTZIN
 70
     0
  9
$DIMALTZ
 70
     0
  9
$DIMALTTZ
 70
     0
  9
$DIMUPT
 70
     0
  9
$DIMDEC
 70
     4
  9
$DIMTDEC
 70
     4
  9
$DIMALTU
 70
     2
  9
$DIMALTTD
 70
     2
  9
$DIMTXSTY
  7
Standard
  9
$DIMAUNIT
 70
     0
  9
$DIMADEC
 70
     0
  9
$DIMALTRND
 40
0.0
  9
$DIMAZIN
 70
     0
  9
$DIMDSEP
 70
    46
  9
$DIMATFIT
 70
     3
  9
$DIMFRAC
 70
     0
  9
$DIMLDRBLK
  1

  9
$DIMLUNIT
 70
     2
  9
$DIMLWD
 70
    -2
  9
$DIMLWE
 70
    -2
  9
$DIMTMOVE
 70
     0
  9
$LUNITS
 70
     2
  9
$LUPREC
 70
     4
  9
$SKETCHINC
 40
0.1
  9
$FILLETRAD
 40
0.5
  9
$AUNITS
 70
     0
  9
$AUPREC
 70
     0
  9
$MENU
  1
.
  9
$ELEVATION
 40
0.0
  9
$PELEVATION
 40
0.0
  9
$THICKNESS
 40
0.0
  9
$LIMCHECK
 70
     0
  9
$CHAMFERA
 40
0.5
  9
$CHAMFERB
 40
0.5
  9
$CHAMFERC
 40
1.0
  9
$CHAMFERD
 40
0.0
  9
$SKPOLY
 70
     0
  9
$TDCREATE
 40
2455253.60061794
  9
$TDUCREATE
 40
2455253.267284607
  9
$TDUPDATE
 40
2455253.600617951
  9
$TDUUPDATE
 40
2455253.267284618
  9
$TDINDWG
 40
0.0000000116
  9
$TDUSRTIMER
 40
0.0000000116
  9
$USRTIMER
 70
     1
  9
$ANGBASE
 50
0.0
  9
$ANGDIR
 70
     0
  9
$PDMODE
 70
     0
  9
$PDSIZE
 40
0.0
  9
$PLINEWID
 40
0.0
  9
$SPLFRAME
 70
     0
  9
$SPLINETYPE
 70
     6
  9
$SPLINESEGS
 70
     8
  9
$HANDSEED
  5
C3
  9
$SURFTAB1
 70
     6
  9
$SURFTAB2
 70
     6
  9
$SURFTYPE
 70
     6
  9
$SURFU
 70
     6
  9
$SURFV
 70
     6
  9
$UCSBASE
  2

  9
$UCSNAME
  2

  9
$UCSORG
 10
0.0
 20
0.0
 30
0.0
  9
$UCSXDIR
 10
1.0
 20
0.0
 30
0.0
  9
$UCSYDIR
 10
0.0
 20
1.0
 30
0.0
  9
$UCSORTHOREF
  2

  9
$UCSORTHOVIEW
 70
     0
  9
$UCSORGTOP
 10
0.0
 20
0.0
 30
0.0
  9
$UCSORGBOTTOM
 10
0.0
 20
0.0
 30
0.0
  9
$UCSORGLEFT
 10
0.0
 20
0.0
 30
0.0
  9
$UCSORGRIGHT
 10
0.0
 20
0.0
 30
0.0
  9
$UCSORGFRONT
 10
0.0
 20
0.0
 30
0.0
  9
$UCSORGBACK
 10
0.0
 20
0.0
 30
0.0
  9
$PUCSBASE
  2

  9
$PUCSNAME
  2

  9
$PUCSORG
 10
0.0
 20
0.0
 30
0.0
  9
$PUCSXDIR
 10
1.0
 20
0.0
 30
0.0
  9
$PUCSYDIR
 10
0.0
 20
1.0
 30
0.0
  9
$PUCSORTHOREF
  2

  9
$PUCSORTHOVIEW
 70
     0
  9
$PUCSORGTOP
 10
0.0
 20
0.0
 30
0.0
  9
$PUCSORGBOTTOM
 10
0.0
 20
0.0
 30
0.0
  9
$PUCSORGLEFT
 10
0.0
 20
0.0
 30
0.0
  9
$PUCSORGRIGHT
 10
0.0
 20
0.0
 30
0.0
  9
$PUCSORGFRONT
 10
0.0
 20
0.0
 30
0.0
  9
$PUCSORGBACK
 10
0.0
 20
0.0
 30
0.0
  9
$USERI1
 70
     0
  9
$USERI2
 70
     0
  9
$USERI3
 70
     0
  9
$USERI4
 70
     0
  9
$USERI5
 70
     0
  9
$USERR1
 40
0.0
  9
$USERR2
 40
0.0
  9
$USERR3
 40
0.0
  9
$USERR4
 40
0.0
  9
$USERR5
 40
0.0
  9
$WORLDVIEW
 70
     1
  9
$SHADEDGE
 70
     3
  9
$SHADEDIF
 70
    70
  9
$TILEMODE
 70
     0
  9
$MAXACTVP
 70
    64
  9
$PINSBASE
 10
0.0
 20
0.0
 30
0.0
  9
$PLIMCHECK
 70
     0
  9
$PEXTMIN
 10
0.0
 20
0.0
 30
0.0
  9
$PEXTMAX
 10
297.0
 20
210.0
 30
0.0
  9
$PLIMMIN
 10
0.0
 20
0.0
  9
$PLIMMAX
 10
297.0
 20
210.0
  9
$UNITMODE
 70
     0
  9
$VISRETAIN
 70
     1
  9
$PLINEGEN
 70
     0
  9
$PSLTSCALE
 70
     1
  9
$TREEDEPTH
 70
  3020
  9
$CMLSTYLE
  2
Standard
  9
$CMLJUST
 70
     0
  9
$CMLSCALE
 40
1.0
  9
$PROXYGRAPHICS
 70
     1
  9
$MEASUREMENT
 70
     1
  9
$CELWEIGHT
370
    -1
  9
$ENDCAPS
280
     0
  9
$JOINSTYLE
280
     0
  9
$LWDISPLAY
290
     0
  9
$INSUNITS
 70
     4
  9
$HYPERLINKBASE
  1

  9
$STYLESHEET
  1

  9
$XEDIT
290
     1
  9
$CEPSNTYPE
380
     0
  9
$PSTYLEMODE
290
     1
  9
$FINGERPRINTGUID
  2
{B4D639EF-60D3-40E5-9974-DB9654B8AB80}
  9
$VERSIONGUID
  2
{FAEB1C32-E019-11D5-929B-00C0DF256EC4}
  9
$EXTNAMES
290
     1
  9
$PSVPSCALE
 40
0.0
  9
$OLESTARTUP
290
     0
  9
$SORTENTS
280
   127
  9
$INDEXCTL
280
     0
  9
$HIDETEXT
280
     1
  9
$XCLIPFRAME
290
     0
  9
$HALOGAP
280
     0
  9
$OBSCOLOR
 70
   257
  9
$OBSLTYPE
280
     0
  9
$INTERSECTIONDISPLAY
280
     0
  9
$INTERSECTIONCOLOR
 70
   257
  9
$DIMASSOC
280
     2
  9
$PROJECTNAME
  1

  0
ENDSEC
  0
SECTION
  2
CLASSES
  0
CLASS
  1
ACDBDICTIONARYWDFLT
  2
AcDbDictionaryWithDefault
  3
ObjectDBX Classes
 90
        0
 91
        4
280
     0
281
     0
  0
CLASS
  1
VISUALSTYLE
  2
AcDbVisualStyle
  3
ObjectDBX Classes
 90
     4095
 91
        4
280
     0
281
     0
  0
CLASS
  1
SCALE
  2
AcDbScale
  3
ObjectDBX Classes
 90
     1153
 91
        4
280
     0
281
     0
  0
CLASS
  1
DICTIONARYVAR
  2
AcDbDictionaryVar
  3
ObjectDBX Classes
 90
        0
 91
        4
280
     0
281
     0
  0
ENDSEC
  0
SECTION
  2
TABLES
  0
TABLE
  2
VPORT
  5
8
330
0
100
AcDbSymbolTable
 70
    17
  0
VPORT
  5
29
330
8
100
AcDbSymbolTableRecord
100
AcDbViewportTableRecord
  2
DUMMY
 70
     0
 10
0.0
 20
0.0
 11
1.0
 21
1.0
 12
10.429907
 22
4.5
 13
0.0
 23
0.0
 14
0.5
 24
0.5
 15
0.5
 25
0.5
 16
0.0
 26
0.0
 36
1.0
 17
0.0
 27
0.0
 37
0.0
 40
9.0
 41
1.972973
 42
50.0
 43
0.0
 44
0.0
 50
0.0
 51
0.0
 71
     0
 72
   100
 73
     1
 74
     3
 75
     0
 76
     0
 77
     0
 78
     0
281
     0
 65
     1
110
0.0
120
0.0
130
0.0
111
1.0
121
0.0
131
0.0
112
0.0
122
1.0
132
0.0
 79
     0
146
0.0
  0
VPORT
  5
52
330
8
100
AcDbSymbolTableRecord
100
AcDbViewportTableRecord
  2
*ACTIVE
 70
     0
 10
0.0
 20
0.0
 11
1.0
 21
1.0
 12
0.0
 22
0.0
 13
0.0
 23
0.0
 14
0.5
 24
0.5
 15
0.5
 25
0.5
 16
0.7188730927569434
 26
-0.5850486126764431
 36
0.3754192287502549
 17
0.0
 27
0.0
 37
0.0
 40
1000.037076
 41
0.017756
 42
50.0
 43
496.430302
 44
-496.430302
 50
0.0
 51
0.0
 71
     0
 72
   100
 73
     1
 74
     3
 75
     0
 76
     0
 77
     0
 78
     0
281
     0
 65
     1
110
0.0
120
0.0
130
0.0
111
1.0
121
0.0
131
0.0
112
0.0
122
1.0
132
0.0
 79
     0
146
0.0
  0
VPORT
  5
53
330
8
100
AcDbSymbolTableRecord
100
AcDbViewportTableRecord
  2
L1
 70
     0
 10
0.0
 20
0.0
 11
1.0
 21
1.0
 12
0.0
 22
0.0
 13
0.0
 23
0.0
 14
0.5
 24
0.5
 15
0.5
 25
0.5
 16
0.7188730927569434
 26
-0.5850486126764431
 36
0.3754192287502549
 17
0.0
 27
0.0
 37
0.0
 40
1000.037076
 41
0.017756
 42
50.0
 43
496.430302
 44
-496.430302
 50
0.0
 51
0.0
 71
     0
 72
   100
 73
     1
 74
     3
 75
     0
 76
     0
 77
     0
 78
     0
281
     0
 65
     1
110
0.0
120
0.0
130
0.0
111
1.0
121
0.0
131
0.0
112
0.0
122
1.0
132
0.0
 79
     0
146
0.0
  0
VPORT
  5
54
330
8
100
AcDbSymbolTableRecord
100
AcDbViewportTableRecord
  2
L2
 70
     0
 10
0.0
 20
0.0
 11
0.5
 21
1.0
 12
0.0
 22
0.0
 13
0.0
 23
0.0
 14
0.5
 24
0.5
 15
0.5
 25
0.5
 16
0.0
 26
-1.0
 36
0.0
 17
0.0
 27
0.0
 37
0.0
 40
968.644492
 41
0.018332
 42
50.0
 43
495.573443
 44
-495.573443
 50
0.0
 51
0.0
 71
     0
 72
   100
 73
     1
 74
     3
 75
     0
 76
     0
 77
     0
 78
     0
281
     0
 65
     1
110
0.0
120
0.0
130
0.0
111
1.0
121
0.0
131
0.0
112
0.0
122
1.0
132
0.0
 79
     0
146
0.0
  0
VPORT
  5
55
330
8
100
AcDbSymbolTableRecord
100
AcDbViewportTableRecord
  2
L2
 70
     0
 10
0.5
 20
0.0
 11
1.0
 21
1.0
 12
0.0
 22
0.0
 13
0.0
 23
0.0
 14
0.5
 24
0.5
 15
0.5
 25
0.5
 16
1.0
 26
0.0
 36
0.0
 17
0.0
 27
0.0
 37
0.0
 40
968.644492
 41
0.018332
 42
50.0
 43
492.02347
 44
-492.02347
 50
0.0
 51
0.0
 71
     0
 72
   100
 73
     1
 74
     3
 75
     0
 76
     0
 77
     0
 78
     0
281
     0
 65
     1
110
0.0
120
0.0
130
0.0
111
1.0
121
0.0
131
0.0
112
0.0
122
1.0
132
0.0
 79
     0
146
0.0
  0
VPORT
  5
56
330
8
100
AcDbSymbolTableRecord
100
AcDbViewportTableRecord
  2
L3
 70
     0
 10
0.0
 20
0.5
 11
1.0
 21
1.0
 12
0.0
 22
0.0
 13
0.0
 23
0.0
 14
0.5
 24
0.5
 15
0.5
 25
0.5
 16
0.0
 26
0.0
 36
1.0
 17
0.0
 27
0.0
 37
0.0
 40
173.425
 41
0.102389
 42
50.0
 43
484.322246
 44
-484.322246
 50
0.0
 51
0.0
 71
     0
 72
   100
 73
     1
 74
     3
 75
     0
 76
     0
 77
     0
 78
     0
281
     0
 65
     1
110
0.0
120
0.0
130
0.0
111
1.0
121
0.0
131
0.0
112
0.0
122
1.0
132
0.0
 79
     0
146
0.0
  0
VPORT
  5
57
330
8
100
AcDbSymbolTableRecord
100
AcDbViewportTableRecord
  2
L3
 70
     0
 10
0.0
 20
0.0
 11
1.0
 21
0.5
 12
0.0
 22
0.0
 13
0.0
 23
0.0
 14
0.5
 24
0.5
 15
0.5
 25
0.5
 16
0.0
 26
-1.0
 36
0.0
 17
0.0
 27
0.0
 37
0.0
 40
968.644492
 41
0.018332
 42
50.0
 43
495.573443
 44
-495.573443
 50
0.0
 51
0.0
 71
     0
 72
   100
 73
     1
 74
     3
 75
     0
 76
     0
 77
     0
 78
     0
281
     0
 65
     1
110
0.0
120
0.0
130
0.0
111
1.0
121
0.0
131
0.0
112
0.0
122
1.0
132
0.0
 79
     0
146
0.0
  0
VPORT
  5
58
330
8
100
AcDbSymbolTableRecord
100
AcDbViewportTableRecord
  2
L4
 70
     0
 10
0.0
 20
0.5
 11
0.5
 21
1.0
 12
0.0
 22
0.0
 13
0.0
 23
0.0
 14
0.5
 24
0.5
 15
0.5
 25
0.5
 16
0.0
 26
0.0
 36
1.0
 17
0.0
 27
0.0
 37
0.0
 40
173.425
 41
0.102389
 42
50.0
 43
484.322246
 44
-484.322246
 50
0.0
 51
0.0
 71
     0
 72
   100
 73
     1
 74
     3
 75
     0
 76
     0
 77
     0
 78
     0
281
     0
 65
     1
110
0.0
120
0.0
130
0.0
111
1.0
121
0.0
131
0.0
112
0.0
122
1.0
132
0.0
 79
     0
146
0.0
  0
VPORT
  5
59
330
8
100
AcDbSymbolTableRecord
100
AcDbViewportTableRecord
  2
L4
 70
     0
 10
0.0
 20
0.0
 11
0.5
 21
0.5
 12
0.0
 22
0.0
 13
0.0
 23
0.0
 14
0.5
 24
0.5
 15
0.5
 25
0.5
 16
0.0
 26
-1.0
 36
0.0
 17
0.0
 27
0.0
 37
0.0
 40
968.644492
 41
0.018332
 42
50.0
 43
495.573443
 44
-495.573443
 50
0.0
 51
0.0
 71
     0
 72
   100
 73
     1
 74
     3
 75
     0
 76
     0
 77
     0
 78
     0
281
     0
 65
     1
110
0.0
120
0.0
130
0.0
111
1.0
121
0.0
131
0.0
112
0.0
122
1.0
132
0.0
 79
     0
146
0.0
  0
VPORT
  5
5A
330
8
100
AcDbSymbolTableRecord
100
AcDbViewportTableRecord
  2
L4
 70
     0
 10
0.5
 20
0.0
 11
1.0
 21
0.5
 12
0.0
 22
0.0
 13
0.0
 23
0.0
 14
0.5
 24
0.5
 15
0.5
 25
0.5
 16
1.0
 26
0.0
 36
0.0
 17
0.0
 27
0.0
 37
0.0
 40
968.644492
 41
0.018332
 42
50.0
 43
492.02347
 44
-492.02347
 50
0.0
 51
0.0
 71
     0
 72
   100
 73
     1
 74
     3
 75
     0
 76
     0
 77
     0
 78
     0
281
     0
 65
     1
110
0.0
120
0.0
130
0.0
111
1.0
121
0.0
131
0.0
112
0.0
122
1.0
132
0.0
 79
     0
146
0.0
  0
VPORT
  5
5B
330
8
100
AcDbSymbolTableRecord
100
AcDbViewportTableRecord
  2
L4
 70
     0
 10
0.5
 20
0.5
 11
1.0
 21
1.0
 12
0.0
 22
0.0
 13
0.0
 23
0.0
 14
0.5
 24
0.5
 15
0.5
 25
0.5
 16
0.5773502691896258
 26
-0.5773502691896258
 36
0.5773502691896258
 17
0.0
 27
0.0
 37
0.0
 40
947.427516
 41
0.018742
 42
50.0
 43
492.728694
 44
-492.728694
 50
0.0
 51
0.0
 71
     0
 72
   100
 73
     1
 74
     3
 75
     0
 76
     0
 77
     0
 78
     0
281
     0
 65
     1
110
0.0
120
0.0
130
0.0
111
1.0
121
0.0
131
0.0
112
0.0
122
1.0
132
0.0
 79
     0
146
0.0
  0
VPORT
  5
5C
330
8
100
AcDbSymbolTableRecord
100
AcDbViewportTableRecord
  2
L6
 70
     0
 10
0.0
 20
0.5
 11
0.333333
 21
1.0
 12
0.0
 22
0.0
 13
0.0
 23
0.0
 14
0.5
 24
0.5
 15
0.5
 25
0.5
 16
0.7188730927569434
 26
-0.5850486126764431
 36
0.3754192287502549
 17
0.0
 27
0.0
 37
0.0
 40
1000.037076
 41
0.017756
 42
50.0
 43
496.430302
 44
-496.430302
 50
0.0
 51
0.0
 71
     0
 72
   100
 73
     1
 74
     3
 75
     0
 76
     0
 77
     0
 78
     0
281
     0
 65
     1
110
0.0
120
0.0
130
0.0
111
1.0
121
0.0
131
0.0
112
0.0
122
1.0
132
0.0
 79
     0
146
0.0
  0
VPORT
  5
5D
330
8
100
AcDbSymbolTableRecord
100
AcDbViewportTableRecord
  2
L6
 70
     0
 10
0.0
 20
0.0
 11
0.333333
 21
0.5
 12
0.0
 22
0.0
 13
0.0
 23
0.0
 14
0.5
 24
0.5
 15
0.5
 25
0.5
 16
-1.0
 26
0.0
 36
0.0
 17
0.0
 27
0.0
 37
0.0
 40
968.644492
 41
0.018332
 42
50.0
 43
492.02347
 44
-492.02347
 50
0.0
 51
0.0
 71
     0
 72
   100
 73
     1
 74
     3
 75
     0
 76
     0
 77
     0
 78
     0
281
     0
 65
     1
110
0.0
120
0.0
130
0.0
111
1.0
121
0.0
131
0.0
112
0.0
122
1.0
132
0.0
 79
     0
146
0.0
  0
VPORT
  5
5E
330
8
100
AcDbSymbolTableRecord
100
AcDbViewportTableRecord
  2
L6
 70
     0
 10
0.333333
 20
0.5
 11
0.666667
 21
1.0
 12
0.0
 22
0.0
 13
0.0
 23
0.0
 14
0.5
 24
0.5
 15
0.5
 25
0.5
 16
0.0
 26
0.0
 36
1.0
 17
0.0
 27
0.0
 37
0.0
 40
173.425
 41
0.102389
 42
50.0
 43
484.322246
 44
-484.322246
 50
0.0
 51
0.0
 71
     0
 72
   100
 73
     1
 74
     3
 75
     0
 76
     0
 77
     0
 78
     0
281
     0
 65
     1
110
0.0
120
0.0
130
0.0
111
1.0
121
0.0
131
0.0
112
0.0
122
1.0
132
0.0
 79
     0
146
0.0
  0
VPORT
  5
5F
330
8
100
AcDbSymbolTableRecord
100
AcDbViewportTableRecord
  2
L6
 70
     0
 10
0.333333
 20
0.0
 11
0.666667
 21
0.5
 12
0.0
 22
0.0
 13
0.0
 23
0.0
 14
0.5
 24
0.5
 15
0.5
 25
0.5
 16
0.0
 26
-1.0
 36
0.0
 17
0.0
 27
0.0
 37
0.0
 40
968.644492
 41
0.018332
 42
50.0
 43
495.573443
 44
-495.573443
 50
0.0
 51
0.0
 71
     0
 72
   100
 73
     1
 74
     3
 75
     0
 76
     0
 77
     0
 78
     0
281
     0
 65
     1
110
0.0
120
0.0
130
0.0
111
1.0
121
0.0
131
0.0
112
0.0
122
1.0
132
0.0
 79
     0
146
0.0
  0
VPORT
  5
60
330
8
100
AcDbSymbolTableRecord
100
AcDbViewportTableRecord
  2
L6
 70
     0
 10
0.666667
 20
0.5
 11
1.0
 21
1.0
 12
0.0
 22
0.0
 13
0.0
 23
0.0
 14
0.5
 24
0.5
 15
0.5
 25
0.5
 16
0.5773502691896258
 26
-0.5773502691896258
 36
0.5773502691896258
 17
0.0
 27
0.0
 37
0.0
 40
947.427516
 41
0.018742
 42
50.0
 43
492.728694
 44
-492.728694
 50
0.0
 51
0.0
 71
     0
 72
   100
 73
     1
 74
     3
 75
     0
 76
     0
 77
     0
 78
     0
281
     0
 65
     1
110
0.0
120
0.0
130
0.0
111
1.0
121
0.0
131
0.0
112
0.0
122
1.0
132
0.0
 79
     0
146
0.0
  0
VPORT
  5
61
330
8
100
AcDbSymbolTableRecord
100
AcDbViewportTableRecord
  2
L6
 70
     0
 10
0.666667
 20
0.0
 11
1.0
 21
0.5
 12
0.0
 22
0.0
 13
0.0
 23
0.0
 14
0.5
 24
0.5
 15
0.5
 25
0.5
 16
1.0
 26
0.0
 36
0.0
 17
0.0
 27
0.0
 37
0.0
 40
968.644492
 41
0.018332
 42
50.0
 43
492.02347
 44
-492.02347
 50
0.0
 51
0.0
 71
     0
 72
   100
 73
     1
 74
     3
 75
     0
 76
     0
 77
     0
 78
     0
281
     0
 65
     1
110
0.0
120
0.0
130
0.0
111
1.0
121
0.0
131
0.0
112
0.0
122
1.0
132
0.0
 79
     0
146
0.0
  0
ENDTAB
  0
TABLE
  2
LTYPE
  5
5
330
0
100
AcDbSymbolTable
 70
     7
  0
LTYPE
  5
14
330
5
100
AcDbSymbolTableRecord
100
AcDbLinetypeTableRecord
  2
BYBLOCK
 70
     0
  3

 72
    65
 73
     0
 40
0.0
  0
LTYPE
  5
15
330
5
100
AcDbSymbolTableRecord
100
AcDbLinetypeTableRecord
  2
BYLAYER
 70
     0
  3

 72
    65
 73
     0
 40
0.0
  0
LTYPE
  5
16
330
5
100
AcDbSymbolTableRecord
100
AcDbLinetypeTableRecord
  2
CONTINUOUS
 70
     0
  3
Solid line
 72
    65
 73
     0
 40
0.0
  0
LTYPE
  5
3C
330
5
100
AcDbSymbolTableRecord
100
AcDbLinetypeTableRecord
  2
DASHED
 70
     0
  3
__ __ __ __ __ __ __ __ __
 72
    65
 73
     2
 40
25.72
 49
12.86
 74
     4
 75
     0
340
0
 46
0.0
 50
0.0
 44
0.0
 45
0.0
 49
-12.86
 74
     4
 75
     0
340
0
 46
0.0
 50
0.0
 44
0.0
 45
0.0
  0
LTYPE
  5
3D
330
5
100
AcDbSymbolTableRecord
100
AcDbLinetypeTableRecord
  2
HIDDEN
 70
     0
  3
_ _ _ _ _ _ _ _ _ _ _ _ _ _ _
 72
    65
 73
     2
 40
0.5
 49
0.25
 74
     4
 75
     0
340
0
 46
0.0
 50
0.0
 44
0.0
 45
0.0
 49
-0.25
 74
     4
 75
     0
340
0
 46
0.0
 50
0.0
 44
0.0
 45
0.0
  0
LTYPE
  5
3E
330
5
100
AcDbSymbolTableRecord
100
AcDbLinetypeTableRecord
  2
PHANTOM
 70
     0
  3
____ _ _ ____ _ _ _____ _ _ ____
 72
    65
 73
     6
 40
50.5
 49
18.0
 74
     4
 75
     0
340
0
 46
0.0
 50
0.0
 44
0.0
 45
0.0
 49
-6.5
 74
     4
 75
     0
340
0
 46
0.0
 50
0.0
 44
0.0
 45
0.0
 49
6.5
 74
     4
 75
     0
340
0
 46
0.0
 50
0.0
 44
0.0
 45
0.0
 49
-6.5
 74
     4
 75
     0
340
0
 46
0.0
 50
0.0
 44
0.0
 45
0.0
 49
6.5
 74
     4
 75
     0
340
0
 46
0.0
 50
0.0
 44
0.0
 45
0.0
 49
-6.5
 74
     4
 75
     0
340
0
 46
0.0
 50
0.0
 44
0.0
 45
0.0
  0
LTYPE
  5
3F
330
5
100
AcDbSymbolTableRecord
100
AcDbLinetypeTableRecord
  2
CENTER
 70
     0
  3
____ _ ____ _ ____ _ ____
 72
    65
 73
     4
 40
47.4
 49
22.0
 74
     4
 75
     0
340
0
 46
0.0
 50
0.0
 44
0.0
 45
0.0
 49
-8.5
 74
     4
 75
     0
340
0
 46
0.0
 50
0.0
 44
0.0
 45
0.0
 49
8.5
 74
     4
 75
     0
340
0
 46
0.0
 50
0.0
 44
0.0
 45
0.0
 49
-8.5
 74
     4
 75
     0
340
0
 46
0.0
 50
0.0
 44
0.0
 45
0.0
  0
LTYPE
  5
40
330
5
100
AcDbSymbolTableRecord
100
AcDbLinetypeTableRecord
  2
DOT
 70
     0
  3
.........................
 72
    65
 73
     2
 40
10.0
 49
0.0
 74
     4
 75
     0
340
0
 46
0.0
 50
0.0
 44
0.0
 45
0.0
 49
-10.0
 74
     4
 75
     0
340
0
 46
0.0
 50
0.0
 44
0.0
 45
0.0
  0
LTYPE
  5
41
330
5
100
AcDbSymbolTableRecord
100
AcDbLinetypeTableRecord
  2
DASHDOT
 70
     0
  3
_._._._._._._._._._._._._._._._.
 72
    65
 73
     4
 40
70.0
 49
31.0
 74
     4
 75
     0
340
0
 46
0.0
 50
0.0
 44
0.0
 45
0.0
 49
-13.0
 74
     4
 75
     0
340
0
 46
0.0
 50
0.0
 44
0.0
 45
0.0
 49
13.0
 74
     4
 75
     0
340
0
 46
0.0
 50
0.0
 44
0.0
 45
0.0
 49
-13.0
 74
     4
 75
     0
340
0
 46
0.0
 50
0.0
 44
0.0
 45
0.0
  0
ENDTAB
  0
TABLE
  2
LAYER
  5
2
330
0
100
AcDbSymbolTable
 70
     3
  0
LAYER
  5
10
330
2
100
AcDbSymbolTableRecord
100
AcDbLayerTableRecord
  2
0
 70
     0
 62
     7
  6
CONTINUOUS
370
    -3
390
F
  0
LAYER
  5
42
330
2
100
AcDbSymbolTableRecord
100
AcDbLayerTableRecord
  2
TOP$5
 70
     0
 62
     7
420
 16777215
  6
CONTINUOUS
370
    -3
390
F
  0
LAYER
  5
43
330
2
100
AcDbSymbolTableRecord
100
AcDbLayerTableRecord
  2
1
 70
     0
 62
     7
420
 16777215
  6
CONTINUOUS
370
    -3
390
F
  0
ENDTAB
  0
TABLE
  2
STYLE
  5
3
330
0
100
AcDbSymbolTable
 70
     1
  0
STYLE
  5
11
330
3
100
AcDbSymbolTableRecord
100
AcDbTextStyleTableRecord
  2
Standard
 70
     0
 40
0.0
 41
1.0
 50
0.0
 71
     0
 42
0.2
  3
txt
  4

  0
ENDTAB
  0
TABLE
  2
VIEW
  5
6
330
0
100
AcDbSymbolTable
 70
     8
  0
VIEW
  5
44
330
6
100
AcDbSymbolTableRecord
100
AcDbViewTableRecord
  2
TOP
 70
     0
 40
173.425
 10
0.0
 20
0.0
 41
210.0
 11
0.0
 21
0.0
 31
1.0
 12
0.0
 22
0.0
 32
0.0
 42
50.0
 43
484.322246
 44
-484.322246
 50
0.0
 71
     0
281
     0
 72
     0
  0
VIEW
  5
45
330
6
100
AcDbSymbolTableRecord
100
AcDbViewTableRecord
  2
FRONT
 70
     0
 40
968.644492
 10
0.0
 20
0.0
 41
210.0
 11
0.0
 21
-1.0
 31
0.0
 12
0.0
 22
0.0
 32
0.0
 42
50.0
 43
495.573443
 44
-495.573443
 50
0.0
 71
     0
281
     0
 72
     0
  0
VIEW
  5
46
330
6
100
AcDbSymbolTableRecord
100
AcDbViewTableRecord
  2
RIGHT
 70
     0
 40
968.644492
 10
0.0
 20
0.0
 41
173.425
 11
1.0
 21
0.0
 31
0.0
 12
0.0
 22
0.0
 32
0.0
 42
50.0
 43
492.02347
 44
-492.02347
 50
0.0
 71
     0
281
     0
 72
     0
  0
VIEW
  5
47
330
6
100
AcDbSymbolTableRecord
100
AcDbViewTableRecord
  2
BACK
 70
     0
 40
968.644492
 10
0.0
 20
0.0
 41
210.0
 11
0.0
 21
1.0
 31
0.0
 12
0.0
 22
0.0
 32
0.0
 42
50.0
 43
495.573443
 44
-495.573443
 50
0.0
 71
     0
281
     0
 72
     0
  0
VIEW
  5
48
330
6
100
AcDbSymbolTableRecord
100
AcDbViewTableRecord
  2
BOTTOM
 70
     0
 40
173.425
 10
0.0
 20
0.0
 41
210.0
 11
0.0
 21
0.0
 31
-1.0
 12
0.0
 22
0.0
 32
0.0
 42
50.0
 43
484.322246
 44
-484.322246
 50
180.0
 71
     0
281
     0
 72
     0
  0
VIEW
  5
49
330
6
100
AcDbSymbolTableRecord
100
AcDbViewTableRecord
  2
LEFT
 70
     0
 40
968.644492
 10
0.0
 20
0.0
 41
173.425
 11
-1.0
 21
0.0
 31
0.0
 12
0.0
 22
0.0
 32
0.0
 42
50.0
 43
492.02347
 44
-492.02347
 50
0.0
 71
     0
281
     0
 72
     0
  0
VIEW
  5
4A
330
6
100
AcDbSymbolTableRecord
100
AcDbViewTableRecord
  2
TFR-ISO
 70
     0
 40
947.427516
 10
0.0
 20
0.0
 41
271.122418
 11
0.5773502691896258
 21
-0.5773502691896258
 31
0.5773502691896258
 12
0.0
 22
0.0
 32
0.0
 42
50.0
 43
492.728694
 44
-492.728694
 50
0.0
 71
     0
281
     0
 72
     0
  0
VIEW
  5
4B
330
6
100
AcDbSymbolTableRecord
100
AcDbViewTableRecord
  2
TFR-TRI
 70
     0
 40
1000.037076
 10
0.0
 20
0.0
 41
267.065231
 11
0.7188730927569434
 21
-0.5850486126764431
 31
0.3754192287502549
 12
0.0
 22
0.0
 32
0.0
 42
50.0
 43
517.541783
 44
-517.541783
 50
0.0
 71
     0
281
     0
 72
     0
  0
ENDTAB
  0
TABLE
  2
UCS
  5
7
330
0
100
AcDbSymbolTable
 70
     0
  0
ENDTAB
  0
TABLE
  2
APPID
  5
9
330
0
100
AcDbSymbolTable
 70
     1
  0
APPID
  5
12
330
9
100
AcDbSymbolTableRecord
100
AcDbRegAppTableRecord
  2
ACAD
 70
     0
  0
ENDTAB
  0
TABLE
  2
DIMSTYLE
  5
A
330
0
100
AcDbSymbolTable
 70
     1
100
AcDbDimStyleTable
  0
DIMSTYLE
105
27
330
A
100
AcDbSymbolTableRecord
100
AcDbDimStyleTableRecord
  2
Standard
 70
     0
340
11
  0
ENDTAB
  0
TABLE
  2
BLOCK_RECORD
  5
1
330
0
100
AcDbSymbolTable
 70
     3
  0
BLOCK_RECORD
  5
1F
330
1
100
AcDbSymbolTableRecord
100
AcDbBlockTableRecord
  2
*Model_Space
340
22
  0
BLOCK_RECORD
  5
4C
330
1
100
AcDbSymbolTableRecord
100
AcDbBlockTableRecord
  2
*PAPER_SPACE
340
51
  0
BLOCK_RECORD
  5
62
330
1
100
AcDbSymbolTableRecord
100
AcDbBlockTableRecord
  2
MOUSE_OUTLINE_DXF
340
0
102
{BLKREFS
331
BE
102
}
  0
ENDTAB
  0
ENDSEC
  0
SECTION
  2
BLOCKS
  0
BLOCK
  5
20
330
1F
100
AcDbEntity
  8
0
100
AcDbBlockBegin
  2
*Model_Space
 70
     0
 10
0.0
 20
0.0
 30
0.0
  3
*Model_Space
  1

  0
ENDBLK
  5
21
330
1F
100
AcDbEntity
  8
0
100
AcDbBlockEnd
  0
BLOCK
  5
4D
330
4C
100
AcDbEntity
 67
     1
  8
0
100
AcDbBlockBegin
  2
*PAPER_SPACE
 70
     0
 10
0.0
 20
0.0
 30
0.0
  3
*PAPER_SPACE
  1

  0
ENDBLK
  5
4E
330
4C
100
AcDbEntity
 67
     1
  8
0
100
AcDbBlockEnd
  0
BLOCK
  5
63
330
62
100
AcDbEntity
  8
0
100
AcDbBlockBegin
  2
MOUSE_OUTLINE_DXF
 70
     0
 10
0.0
 20
0.0
 30
0.0
  3
MOUSE_OUTLINE_DXF
  1

  0
SPLINE
  5
65
330
62
100
AcDbEntity
  8
1
  6
CONTINUOUS
 62
   172
100
AcDbSpline
210
0.0
220
0.0
230
1.0
 70
    11
 71
     3
 72
    31
 73
    27
 74
     0
 42
0.000000001
 43
0.0000000001
 40
-0.0295615260999762
 40
0.0
 40
0.0
 40
0.0
 40
0.2635077912050085
 40
0.2635077912050085
 40
0.2635077912050085
 40
0.2930693173037804
 40
0.3226308434025524
 40
0.3521923695013243
 40
0.3817538956000962
 40
0.4113154216988681
 40
0.4408769477976401
 40
0.470438473896412
 40
0.5
 40
0.5
 40
0.5
 40
0.7635077912001909
 40
0.7635077912001909
 40
0.7635077912001909
 40
0.793069317300167
 40
0.8226308434001431
 40
0.8521923695001192
 40
0.8817538956000954
 40
0.9113154217000716
 40
0.9408769478000477
 40
0.9704384739000238
 40
1.0
 40
1.0
 40
1.0
 40
1.263507791205009
 10
111.4939269999998
 20
149.4773627651363
 30
0.0
 10
116.1605936643581
 20
149.4773627651363
 30
0.0
 10
120.8272603356414
 20
149.4773627651363
 30
0.0
 10
125.4939269999998
 20
149.4773627651363
 30
0.0
 10
125.9939272006505
 20
149.4773627651363
 30
0.0
 10
127.0487557603749
 20
149.6722753219584
 30
0.0
 10
128.4239326545724
 20
150.6058643180126
 30
0.0
 10
129.2669098369082
 20
151.8755061659197
 30
0.0
 10
129.6074356010613
 20
153.4773627454207
 30
0.0
 10
129.2669097588444
 20
155.0792194431156
 30
0.0
 10
128.423932654665
 20
156.3488612122431
 30
0.0
 10
127.04875583817
 20
157.2824501295188
 30
0.0
 10
125.9939272012426
 20
157.4773627651363
 30
0.0
 10
125.4939269999997
 20
157.4773627651363
 30
0.0
 10
120.8272603356413
 20
157.4773627651363
 30
0.0
 10
116.1605936643582
 20
157.4773627651363
 30
0.0
 10
111.4939269999998
 20
157.4773627651363
 30
0.0
 10
110.9939267981648
 20
157.4773627651363
 30
0.0
 10
109.9390982415403
 20
157.2824502096539
 30
0.0
 10
108.5639213452727
 20
156.3488612119579
 30
0.0
 10
107.7209441617575
 20
155.0792193641859
 30
0.0
 10
107.3804183993428
 20
153.4773627850956
 30
0.0
 10
107.7209442408697
 20
151.8755060862491
 30
0.0
 10
108.5639213453467
 20
150.6058643183147
 30
0.0
 10
109.9390981621321
 20
149.6722754004563
 30
0.0
 10
110.9939267987569
 20
149.4773627651363
 30
0.0
 10
111.4939269999998
 20
149.4773627651363
 30
0.0
  0
SPLINE
  5
66
330
62
100
AcDbEntity
  8
1
  6
CONTINUOUS
 62
     7
100
AcDbSpline
210
0.0
220
0.0
230
1.0
 70
    11
 71
     3
 72
   113
 73
   109
 74
     0
 42
0.000000001
 43
0.0000000001
 40
-0.1350741057938928
 40
0.0
 40
0.0
 40
0.0
 40
0.0203745678196225
 40
0.0203745678196225
 40
0.0203745678196225
 40
0.1106750785330327
 40
0.1106750785330327
 40
0.1106750785330327
 40
0.1243162031143425
 40
0.1243162031143425
 40
0.1243162031143425
 40
0.1348266736226854
 40
0.1348266736226854
 40
0.1348266736226854
 40
0.1430084874770953
 40
0.1430084874770953
 40
0.1430084874770953
 40
0.1508865652856756
 40
0.1508865652856756
 40
0.1508865652856756
 40
0.1572499205922505
 40
0.1572499205922505
 40
0.1572499205922505
 40
0.1636925456852963
 40
0.1636925456852963
 40
0.1636925456852963
 40
0.1724779082188564
 40
0.1724779082188564
 40
0.1724779082188564
 40
0.1838219655625327
 40
0.1838219655625327
 40
0.1838219655625327
 40
0.2786506789362382
 40
0.2786506789362382
 40
0.2786506789362382
 40
0.2977672852237853
 40
0.2977672852237853
 40
0.2977672852237853
 40
0.3880677959371962
 40
0.3880677959371962
 40
0.3880677959371962
 40
0.4014588812562616
 40
0.4014588812562616
 40
0.4014588812562616
 40
0.4119693517646004
 40
0.4119693517646004
 40
0.4119693517646004
 40
0.4205063431121629
 40
0.4205063431121629
 40
0.4205063431121629
 40
0.4283851374955645
 40
0.4283851374955645
 40
0.4283851374955645
 40
0.4347484928021408
 40
0.4347484928021408
 40
0.4347484928021408
 40
0.4411906505162482
 40
0.4411906505162482
 40
0.4411906505162482
 40
0.4612200803377736
 40
0.4612200803377736
 40
0.4612200803377736
 40
0.5560487937116144
 40
0.5560487937116144
 40
0.5560487937116144
 40
0.5764226133977787
 40
0.5764226133977787
 40
0.5764226133977787
 40
0.6697421918878789
 40
0.6697421918878789
 40
0.6697421918878789
 40
0.6891507350815402
 40
0.6891507350815402
 40
0.6891507350815402
 40
0.7045269908032893
 40
0.7045269908032893
 40
0.7045269908032893
 40
0.7166425846235731
 40
0.7166425846235731
 40
0.7166425846235731
 40
0.7301250092454583
 40
0.7301250092454583
 40
0.7301250092454583
 40
0.7462719726912995
 40
0.7462719726912995
 40
0.7462719726912995
 40
0.7650497031829482
 40
0.7650497031829482
 40
0.7650497031829482
 40
0.7821433529632874
 40
0.7821433529632874
 40
0.7821433529632874
 40
0.7986087305763342
 40
0.7986087305763342
 40
0.7986087305763342
 40
0.8138028608666754
 40
0.8138028608666754
 40
0.8138028608666754
 40
0.830968264548181
 40
0.830968264548181
 40
0.830968264548181
 40
0.8453062928328636
 40
0.8453062928328636
 40
0.8453062928328636
 40
0.8649258942061072
 40
0.8649258942061072
 40
0.8649258942061072
 40
1.0
 40
1.0
 40
1.0
 40
1.020374567819623
 10
224.332886
 20
131.721115
 30
0.0
 10
224.4690553333334
 20
131.721115
 30
0.0
 10
224.6052246666667
 20
131.721115
 30
0.0
 10
224.741394
 20
131.721115
 30
0.0
 10
224.741394
 20
132.3246203333333
 30
0.0
 10
224.741394
 20
132.9281256666667
 30
0.0
 10
224.741394
 20
133.531631
 30
0.0
 10
224.7497966666667
 20
133.6224106666667
 30
0.0
 10
224.7581993333334
 20
133.7131903333333
 30
0.0
 10
224.766602
 20
133.80397
 30
0.0
 10
224.7918196666667
 20
133.869532
 30
0.0
 10
224.8170373333333
 20
133.935094
 30
0.0
 10
224.842255
 20
134.000656
 30
0.0
 10
224.8809206666666
 20
134.0393216666667
 30
0.0
 10
224.9195863333333
 20
134.0779873333333
 30
0.0
 10
224.958252
 20
134.116653
 30
0.0
 10
225.0086823333333
 20
134.1317846666667
 30
0.0
 10
225.0591126666667
 20
134.1469163333333
 30
0.0
 10
225.109543
 20
134.162048
 30
0.0
 10
225.1498873333333
 20
134.148595
 30
0.0
 10
225.1902316666667
 20
134.135142
 30
0.0
 10
225.230576
 20
134.121689
 30
0.0
 10
225.257477
 20
134.0880686666667
 30
0.0
 10
225.284378
 20
134.0544483333333
 30
0.0
 10
225.311279
 20
134.020828
 30
0.0
 10
225.3247273333334
 20
133.9636736666667
 30
0.0
 10
225.3381756666667
 20
133.9065193333333
 30
0.0
 10
225.351624
 20
133.849365
 30
0.0
 10
225.3566643333333
 20
133.773717
 30
0.0
 10
225.3617046666667
 20
133.698069
 30
0.0
 10
225.366745
 20
133.622421
 30
0.0
 10
225.366745
 20
132.9886523333333
 30
0.0
 10
225.366745
 20
132.3548836666667
 30
0.0
 10
225.366745
 20
131.721115
 30
0.0
 10
225.494507
 20
131.721115
 30
0.0
 10
225.622269
 20
131.721115
 30
0.0
 10
225.750031
 20
131.721115
 30
0.0
 10
225.750031
 20
132.3246203333333
 30
0.0
 10
225.750031
 20
132.9281256666667
 30
0.0
 10
225.750031
 20
133.531631
 30
0.0
 10
225.7584333333333
 20
133.6207323333333
 30
0.0
 10
225.7668356666667
 20
133.7098336666667
 30
0.0
 10
225.775238
 20
133.798935
 30
0.0
 10
225.8004556666666
 20
133.864497
 30
0.0
 10
225.8256733333334
 20
133.930059
 30
0.0
 10
225.850891
 20
133.995621
 30
0.0
 10
225.8912353333334
 20
134.035965
 30
0.0
 10
225.9315796666666
 20
134.076309
 30
0.0
 10
225.971924
 20
134.116653
 30
0.0
 10
226.0223593333334
 20
134.1317846666667
 30
0.0
 10
226.0727946666667
 20
134.1469163333333
 30
0.0
 10
226.12323
 20
134.162048
 30
0.0
 10
226.1635743333333
 20
134.148595
 30
0.0
 10
226.2039186666667
 20
134.135142
 30
0.0
 10
226.244263
 20
134.121689
 30
0.0
 10
226.271159
 20
134.0880686666667
 30
0.0
 10
226.298055
 20
134.0544483333333
 30
0.0
 10
226.324951
 20
134.020828
 30
0.0
 10
226.3417663333333
 20
133.8880256666667
 30
0.0
 10
226.3585816666667
 20
133.7552233333333
 30
0.0
 10
226.375397
 20
133.622421
 30
0.0
 10
226.375397
 20
132.9886523333333
 30
0.0
 10
226.375397
 20
132.3548836666667
 30
0.0
 10
226.375397
 20
131.721115
 30
0.0
 10
226.5115613333333
 20
131.721115
 30
0.0
 10
226.6477256666667
 20
131.721115
 30
0.0
 10
226.78389
 20
131.721115
 30
0.0
 10
226.78389
 20
132.3447976666667
 30
0.0
 10
226.78389
 20
132.9684803333333
 30
0.0
 10
226.78389
 20
133.592163
 30
0.0
 10
226.7754823333333
 20
133.7216033333333
 30
0.0
 10
226.7670746666667
 20
133.8510436666666
 30
0.0
 10
226.758667
 20
133.980484
 30
0.0
 10
226.731771
 20
134.079666
 30
0.0
 10
226.704875
 20
134.178848
 30
0.0
 10
226.677979
 20
134.27803
 30
0.0
 10
226.6241866666667
 20
134.3385516666667
 30
0.0
 10
226.5703943333333
 20
134.3990733333333
 30
0.0
 10
226.516602
 20
134.459595
 30
0.0
 10
226.4291843333333
 20
134.4814453333333
 30
0.0
 10
226.3417666666667
 20
134.5032956666667
 30
0.0
 10
226.254349
 20
134.525146
 30
0.0
 10
226.1518046666667
 20
134.491526
 30
0.0
 10
226.0492603333333
 20
134.457906
 30
0.0
 10
225.946716
 20
134.424286
 30
0.0
 10
225.867706
 20
134.3267823333333
 30
0.0
 10
225.788696
 20
134.2292786666667
 30
0.0
 10
225.709686
 20
134.131775
 30
0.0
 10
225.6474863333333
 20
134.2276
 30
0.0
 10
225.5852866666667
 20
134.323425
 30
0.0
 10
225.523087
 20
134.41925
 30
0.0
 10
225.418859
 20
134.4545486666667
 30
0.0
 10
225.314631
 20
134.4898473333333
 30
0.0
 10
225.210403
 20
134.525146
 30
0.0
 10
225.114583
 20
134.491526
 30
0.0
 10
225.018763
 20
134.457906
 30
0.0
 10
224.922943
 20
134.424286
 30
0.0
 10
224.857381
 20
134.3301443333333
 30
0.0
 10
224.791819
 20
134.2360026666667
 30
0.0
 10
224.726257
 20
134.141861
 30
0.0
 10
224.726257
 20
134.2376863333333
 30
0.0
 10
224.726257
 20
134.3335116666667
 30
0.0
 10
224.726257
 20
134.429337
 30
0.0
 10
224.5951333333333
 20
134.429337
 30
0.0
 10
224.4640096666667
 20
134.429337
 30
0.0
 10
224.332886
 20
134.429337
 30
0.0
 10
224.332886
 20
133.5265963333333
 30
0.0
 10
224.332886
 20
132.6238556666667
 30
0.0
 10
224.332886
 20
131.721115
 30
0.0
  0
SPLINE
  5
67
330
62
100
AcDbEntity
  8
1
  6
CONTINUOUS
 62
     7
100
AcDbSpline
210
0.0
220
0.0
230
1.0
 70
    11
 71
     3
 72
    56
 73
    52
 74
     0
 42
0.000000001
 43
0.0000000001
 40
-0.080578762511571
 40
0.0
 40
0.0
 40
0.0
 40
0.0810898441973883
 40
0.0810898441973883
 40
0.0810898441973883
 40
0.1435414576987924
 40
0.1435414576987924
 40
0.1435414576987924
 40
0.1955943671604653
 40
0.1955943671604653
 40
0.1955943671604653
 40
0.2502497669947623
 40
0.2502497669947623
 40
0.2502497669947623
 40
0.3044029627860192
 40
0.3044029627860192
 40
0.3044029627860192
 40
0.3564547393232237
 40
0.3564547393232237
 40
0.3564547393232237
 40
0.418709486317212
 40
0.418709486317212
 40
0.418709486317212
 40
0.4998499198651367
 40
0.4998499198651367
 40
0.4998499198651367
 40
0.5804795923950495
 40
0.5804795923950495
 40
0.5804795923950495
 40
0.6138211967141781
 40
0.6138211967141781
 40
0.6138211967141781
 40
0.6434912528377557
 40
0.6434912528377557
 40
0.6434912528377557
 40
0.6955430978549697
 40
0.6955430978549697
 40
0.6955430978549697
 40
0.749806188988098
 40
0.749806188988098
 40
0.749806188988098
 40
0.8045704764020949
 40
0.8045704764020949
 40
0.8045704764020949
 40
0.8569696239870153
 40
0.8569696239870153
 40
0.8569696239870153
 40
0.919421237488429
 40
0.919421237488429
 40
0.919421237488429
 40
1.0
 40
1.0
 40
1.0
 40
1.081089844197388
 10
216.565887
 20
133.430771
 30
0.0
 10
216.5910996666667
 20
133.1668446666667
 30
0.0
 10
216.6163123333333
 20
132.9029183333333
 30
0.0
 10
216.641525
 20
132.638992
 30
0.0
 10
216.720535
 20
132.4507086666667
 30
0.0
 10
216.799545
 20
132.2624253333333
 30
0.0
 10
216.878555
 20
132.074142
 30
0.0
 10
217.0046383333333
 20
131.9598283333333
 30
0.0
 10
217.1307216666667
 20
131.8455146666667
 30
0.0
 10
217.256805
 20
131.731201
 30
0.0
 10
217.4316353333334
 20
131.694219
 30
0.0
 10
217.6064656666667
 20
131.657237
 30
0.0
 10
217.781296
 20
131.620255
 30
0.0
 10
217.9544476666667
 20
131.657237
 30
0.0
 10
218.1275993333333
 20
131.694219
 30
0.0
 10
218.300751
 20
131.731201
 30
0.0
 10
218.4268293333333
 20
131.8455146666667
 30
0.0
 10
218.5529076666667
 20
131.9598283333333
 30
0.0
 10
218.678986
 20
132.074142
 30
0.0
 10
218.7563173333333
 20
132.2624253333333
 30
0.0
 10
218.8336486666667
 20
132.4507086666667
 30
0.0
 10
218.91098
 20
132.638992
 30
0.0
 10
218.9378763333333
 20
132.9029183333333
 30
0.0
 10
218.9647726666667
 20
133.1668446666667
 30
0.0
 10
218.991669
 20
133.430771
 30
0.0
 10
218.9647726666667
 20
133.6930186666667
 30
0.0
 10
218.9378763333333
 20
133.9552663333333
 30
0.0
 10
218.91098
 20
134.217514
 30
0.0
 10
218.8790383333333
 20
134.3217416666667
 30
0.0
 10
218.8470966666667
 20
134.4259693333333
 30
0.0
 10
218.815155
 20
134.530197
 30
0.0
 10
218.7697653333333
 20
134.615931
 30
0.0
 10
218.7243756666667
 20
134.701665
 30
0.0
 10
218.678986
 20
134.787399
 30
0.0
 10
218.5529076666667
 20
134.901713
 30
0.0
 10
218.4268293333333
 20
135.016027
 30
0.0
 10
218.300751
 20
135.130341
 30
0.0
 10
218.1275993333333
 20
135.1690066666667
 30
0.0
 10
217.9544476666667
 20
135.2076723333333
 30
0.0
 10
217.781296
 20
135.246338
 30
0.0
 10
217.6064656666667
 20
135.2076723333333
 30
0.0
 10
217.4316353333333
 20
135.1690066666667
 30
0.0
 10
217.256805
 20
135.130341
 30
0.0
 10
217.1307216666667
 20
135.0143486666666
 30
0.0
 10
217.0046383333333
 20
134.8983563333333
 30
0.0
 10
216.878555
 20
134.782364
 30
0.0
 10
216.799545
 20
134.5940806666667
 30
0.0
 10
216.720535
 20
134.4057973333333
 30
0.0
 10
216.641525
 20
134.217514
 30
0.0
 10
216.6163123333333
 20
133.9552663333333
 30
0.0
 10
216.5910996666667
 20
133.6930186666667
 30
0.0
 10
216.565887
 20
133.430771
 30
0.0
  0
SPLINE
  5
68
330
62
100
AcDbEntity
  8
1
  6
CONTINUOUS
 62
     7
100
AcDbSpline
210
0.0
220
0.0
230
1.0
 70
     8
 71
     3
 72
    98
 73
    94
 74
     0
 42
0.000000001
 43
0.0000000001
 40
0.0
 40
0.0
 40
0.0
 40
0.0
 40
0.0386453899798298
 40
0.0386453899798298
 40
0.0386453899798298
 40
0.0793315652188298
 40
0.0793315652188298
 40
0.0793315652188298
 40
0.1224892552742669
 40
0.1224892552742669
 40
0.1224892552742669
 40
0.1683057859331919
 40
0.1683057859331919
 40
0.1683057859331919
 40
0.2166869191910423
 40
0.2166869191910423
 40
0.2166869191910423
 40
0.2672377142570875
 40
0.2672377142570875
 40
0.2672377142570875
 40
0.3192861759932216
 40
0.3192861759932216
 40
0.3192861759932216
 40
0.3455942290704181
 40
0.3455942290704181
 40
0.3455942290704181
 40
0.371978718341738
 40
0.371978718341738
 40
0.371978718341738
 40
0.3982056770477679
 40
0.3982056770477679
 40
0.3982056770477679
 40
0.4243970935628324
 40
0.4243970935628324
 40
0.4243970935628324
 40
0.4501274692266617
 40
0.4501274692266617
 40
0.4501274692266617
 40
0.4757231619034623
 40
0.4757231619034623
 40
0.4757231619034623
 40
0.500638003906663
 40
0.500638003906663
 40
0.500638003906663
 40
0.5253419052932691
 40
0.5253419052932691
 40
0.5253419052932691
 40
0.5492458865754126
 40
0.5492458865754126
 40
0.5492458865754126
 40
0.5728899025996433
 40
0.5728899025996433
 40
0.5728899025996433
 40
0.5957133066598158
 40
0.5957133066598158
 40
0.5957133066598158
 40
0.6182534061112054
 40
0.6182534061112054
 40
0.6182534061112054
 40
0.6400351023264863
 40
0.6400351023264863
 40
0.6400351023264863
 40
0.6615340598456438
 40
0.6615340598456438
 40
0.6615340598456438
 40
0.6824042976281555
 40
0.6824042976281555
 40
0.6824042976281555
 40
0.7030095996665345
 40
0.7030095996665345
 40
0.7030095996665345
 40
0.7231735126114683
 40
0.7231735126114683
 40
0.7231735126114683
 40
0.7431035923770528
 40
0.7431035923770528
 40
0.7431035923770528
 40
0.7823641068073556
 40
0.7823641068073556
 40
0.7823641068073556
 40
0.821516604904335
 40
0.821516604904335
 40
0.821516604904335
 40
0.8615259996065161
 40
0.8615259996065161
 40
0.8615259996065161
 40
0.903880232281947
 40
0.903880232281947
 40
0.903880232281947
 40
0.9515313968599413
 40
0.9515313968599413
 40
0.9515313968599413
 40
1.0
 40
1.0
 40
1.0
 40
1.0
 10
52.913284
 20
183.977356
 30
0.0
 10
52.30208066666666
 20
183.9506886666667
 30
0.0
 10
51.69087733333333
 20
183.9240213333333
 30
0.0
 10
51.07967399999999
 20
183.897354
 30
0.0
 10
50.44077566666666
 20
183.8157246666667
 30
0.0
 10
49.80187733333333
 20
183.7340953333333
 30
0.0
 10
49.162979
 20
183.652466
 30
0.0
 10
48.494161
 20
183.5129343333333
 30
0.0
 10
47.825343
 20
183.3734026666667
 30
0.0
 10
47.15652500000001
 20
183.233871
 30
0.0
 10
46.459384
 20
183.0337013333333
 30
0.0
 10
45.76224300000001
 20
182.8335316666667
 30
0.0
 10
45.065102
 20
182.633362
 30
0.0
 10
44.34551533333334
 20
182.371043
 30
0.0
 10
43.62592866666667
 20
182.108724
 30
0.0
 10
42.906342
 20
181.846405
 30
0.0
 10
42.174505
 20
181.522639
 30
0.0
 10
41.442668
 20
181.198873
 30
0.0
 10
40.710831
 20
180.875107
 30
0.0
 10
39.98055799999999
 20
180.493505
 30
0.0
 10
39.250285
 20
180.111903
 30
0.0
 10
38.520012
 20
179.730301
 30
0.0
 10
38.16060133333334
 20
179.5198823333334
 30
0.0
 10
37.80119066666666
 20
179.3094636666666
 30
0.0
 10
37.44178
 20
179.099045
 30
0.0
 10
37.08829233333334
 20
178.8765413333333
 30
0.0
 10
36.73480466666667
 20
178.6540376666667
 30
0.0
 10
36.381317
 20
178.431534
 30
0.0
 10
36.03725166666666
 20
178.1991476666667
 30
0.0
 10
35.69318633333333
 20
177.9667613333334
 30
0.0
 10
35.349121
 20
177.734375
 30
0.0
 10
35.01326233333333
 20
177.4912363333333
 30
0.0
 10
34.67740366666666
 20
177.2480976666667
 30
0.0
 10
34.341545
 20
177.004959
 30
0.0
 10
34.01963800000001
 20
176.755371
 30
0.0
 10
33.697731
 20
176.505783
 30
0.0
 10
33.375824
 20
176.256195
 30
0.0
 10
33.064087
 20
175.99734
 30
0.0
 10
32.75235
 20
175.738485
 30
0.0
 10
32.440613
 20
175.47963
 30
0.0
 10
32.14592
 20
175.2174786666667
 30
0.0
 10
31.851227
 20
174.9553273333333
 30
0.0
 10
31.556534
 20
174.693176
 30
0.0
 10
31.27353933333333
 20
174.4232533333333
 30
0.0
 10
30.99054466666666
 20
174.1533306666667
 30
0.0
 10
30.70755
 20
173.883408
 30
0.0
 10
30.443156
 20
173.6126763333333
 30
0.0
 10
30.178762
 20
173.3419446666667
 30
0.0
 10
29.914368
 20
173.071213
 30
0.0
 10
29.66273766666667
 20
172.7941133333333
 30
0.0
 10
29.41110733333333
 20
172.5170136666667
 30
0.0
 10
29.159477
 20
172.239914
 30
0.0
 10
28.92667866666666
 20
171.9635976666667
 30
0.0
 10
28.69388033333334
 20
171.6872813333333
 30
0.0
 10
28.461082
 20
171.410965
 30
0.0
 10
28.241699
 20
171.129547
 30
0.0
 10
28.022316
 20
170.848129
 30
0.0
 10
27.802933
 20
170.566711
 30
0.0
 10
27.60165433333333
 20
170.2867326666667
 30
0.0
 10
27.40037566666667
 20
170.0067543333333
 30
0.0
 10
27.199097
 20
169.726776
 30
0.0
 10
27.011541
 20
169.4427743333333
 30
0.0
 10
26.823985
 20
169.1587726666667
 30
0.0
 10
26.636429
 20
168.874771
 30
0.0
 10
26.46565266666667
 20
168.5919393333334
 30
0.0
 10
26.29487633333333
 20
168.3091076666667
 30
0.0
 10
26.1241
 20
168.026276
 30
0.0
 10
25.96711
 20
167.7403413333333
 30
0.0
 10
25.81012
 20
167.4544066666667
 30
0.0
 10
25.65313
 20
167.168472
 30
0.0
 10
25.51130966666667
 20
166.882497
 30
0.0
 10
25.36948933333333
 20
166.596522
 30
0.0
 10
25.227669
 20
166.310547
 30
0.0
 10
25.099518
 20
166.0222373333334
 30
0.0
 10
24.971367
 20
165.7339276666667
 30
0.0
 10
24.843216
 20
165.445618
 30
0.0
 10
24.62736
 20
164.862783
 30
0.0
 10
24.411504
 20
164.279948
 30
0.0
 10
24.19564799999999
 20
163.697113
 30
0.0
 10
24.03020966666667
 20
163.0997873333334
 30
0.0
 10
23.86477133333333
 20
162.5024616666667
 30
0.0
 10
23.699333
 20
161.905136
 30
0.0
 10
23.58079766666667
 20
161.2829486666667
 30
0.0
 10
23.46226233333333
 20
160.6607613333333
 30
0.0
 10
23.343727
 20
160.038574
 30
0.0
 10
23.26867666666667
 20
159.372289
 30
0.0
 10
23.19362633333334
 20
158.706004
 30
0.0
 10
23.118576
 20
158.039719
 30
0.0
 10
23.08302566666667
 20
157.2862043333333
 30
0.0
 10
23.04747533333333
 20
156.5326896666667
 30
0.0
 10
23.011925
 20
155.779175
 30
0.0
 10
23.00632
 20
155.011902
 30
0.0
 10
23.000715
 20
154.244629
 30
0.0
 10
22.99511
 20
153.477356
 30
0.0
  0
SPLINE
  5
69
330
62
100
AcDbEntity
  8
1
  6
CONTINUOUS
 62
     7
100
AcDbSpline
210
0.0
220
0.0
230
1.0
 70
     8
 71
     3
 72
    98
 73
    94
 74
     0
 42
0.000000001
 43
0.0000000001
 40
0.0
 40
0.0
 40
0.0
 40
0.0
 40
0.0386476415008228
 40
0.0386476415008228
 40
0.0386476415008228
 40
0.0793340250187502
 40
0.0793340250187502
 40
0.0793340250187502
 40
0.1224918764100614
 40
0.1224918764100614
 40
0.1224918764100614
 40
0.1683085008296321
 40
0.1683085008296321
 40
0.1683085008296321
 40
0.2166899590433525
 40
0.2166899590433525
 40
0.2166899590433525
 40
0.2672406953417644
 40
0.2672406953417644
 40
0.2672406953417644
 40
0.3192890769350938
 40
0.3192890769350938
 40
0.3192890769350938
 40
0.3455972900378846
 40
0.3455972900378846
 40
0.3455972900378846
 40
0.3719817797601635
 40
0.3719817797601635
 40
0.3719817797601635
 40
0.3982087761041341
 40
0.3982087761041341
 40
0.3982087761041341
 40
0.4244001930668609
 40
0.4244001930668609
 40
0.4244001930668609
 40
0.4501304526885588
 40
0.4501304526885588
 40
0.4501304526885588
 40
0.4757261592542085
 40
0.4757261592542085
 40
0.4757261592542085
 40
0.5006408618312062
 40
0.5006408618312062
 40
0.5006408618312062
 40
0.5253446715166293
 40
0.5253446715166293
 40
0.5253446715166293
 40
0.5492488791710973
 40
0.5492488791710973
 40
0.5492488791710973
 40
0.5728927823575298
 40
0.5728927823575298
 40
0.5728927823575298
 40
0.5957158367309972
 40
0.5957158367309972
 40
0.5957158367309972
 40
0.6182560784382041
 40
0.6182560784382041
 40
0.6182560784382041
 40
0.6400377921223714
 40
0.6400377921223714
 40
0.6400377921223714
 40
0.661536376055269
 40
0.661536376055269
 40
0.661536376055269
 40
0.6824068264120762
 40
0.6824068264120762
 40
0.6824068264120762
 40
0.7030120292760339
 40
0.7030120292760339
 40
0.7030120292760339
 40
0.7231760362693637
 40
0.7231760362693637
 40
0.7231760362693637
 40
0.7431056909229412
 40
0.7431056909229412
 40
0.7431056909229412
 40
0.7823665022057474
 40
0.7823665022057474
 40
0.7823665022057474
 40
0.8215189166697842
 40
0.8215189166697842
 40
0.8215189166697842
 40
0.8615285907926274
 40
0.8615285907926274
 40
0.8615285907926274
 40
0.9038828076942609
 40
0.9038828076942609
 40
0.9038828076942609
 40
0.9515342806390347
 40
0.9515342806390347
 40
0.9515342806390347
 40
1.0
 40
1.0
 40
1.0
 40
1.0
 10
52.913284
 20
122.977356
 30
0.0
 10
52.302045
 20
123.0040233333333
 30
0.0
 10
51.690806
 20
123.0306906666667
 30
0.0
 10
51.079567
 20
123.057358
 30
0.0
 10
50.44066633333333
 20
123.138995
 30
0.0
 10
49.80176566666666
 20
123.220632
 30
0.0
 10
49.16286499999999
 20
123.302269
 30
0.0
 10
48.49404433333333
 20
123.4418003333333
 30
0.0
 10
47.82522366666666
 20
123.5813316666667
 30
0.0
 10
47.15640299999999
 20
123.720863
 30
0.0
 10
46.459262
 20
123.921038
 30
0.0
 10
45.762121
 20
124.121213
 30
0.0
 10
45.06498
 20
124.321388
 30
0.0
 10
44.34539066666667
 20
124.5837146666667
 30
0.0
 10
43.62580133333334
 20
124.8460413333333
 30
0.0
 10
42.906212
 20
125.108368
 30
0.0
 10
42.174375
 20
125.4321316666667
 30
0.0
 10
41.442538
 20
125.7558953333333
 30
0.0
 10
40.710701
 20
126.079659
 30
0.0
 10
39.98043066666667
 20
126.4612633333333
 30
0.0
 10
39.25016033333333
 20
126.8428676666667
 30
0.0
 10
38.51989
 20
127.224472
 30
0.0
 10
38.16047933333333
 20
127.4348956666667
 30
0.0
 10
37.80106866666666
 20
127.6453193333333
 30
0.0
 10
37.441658
 20
127.855743
 30
0.0
 10
37.08817033333333
 20
128.0782466666667
 30
0.0
 10
36.73468266666666
 20
128.3007503333334
 30
0.0
 10
36.381195
 20
128.523254
 30
0.0
 10
36.03713233333333
 20
128.7556453333333
 30
0.0
 10
35.69306966666667
 20
128.9880366666667
 30
0.0
 10
35.349007
 20
129.220428
 30
0.0
 10
35.01314833333333
 20
129.4635666666667
 30
0.0
 10
34.67728966666667
 20
129.7067053333334
 30
0.0
 10
34.341431
 20
129.949844
 30
0.0
 10
34.01952633333334
 20
130.199432
 30
0.0
 10
33.69762166666667
 20
130.44902
 30
0.0
 10
33.375717
 20
130.698608
 30
0.0
 10
33.06398
 20
130.9574633333333
 30
0.0
 10
32.752243
 20
131.2163186666667
 30
0.0
 10
32.440506
 20
131.475174
 30
0.0
 10
32.14581566666666
 20
131.737325
 30
0.0
 10
31.85112533333333
 20
131.999476
 30
0.0
 10
31.556435
 20
132.261627
 30
0.0
 10
31.27344266666666
 20
132.53155
 30
0.0
 10
30.99045033333333
 20
132.801473
 30
0.0
 10
30.707458
 20
133.071396
 30
0.0
 10
30.443064
 20
133.3421326666667
 30
0.0
 10
30.17867
 20
133.6128693333333
 30
0.0
 10
29.914276
 20
133.883606
 30
0.0
 10
29.66264833333333
 20
134.1607056666666
 30
0.0
 10
29.41102066666667
 20
134.4378053333333
 30
0.0
 10
29.15939300000001
 20
134.714905
 30
0.0
 10
28.92659733333334
 20
134.9912163333333
 30
0.0
 10
28.69380166666667
 20
135.2675276666667
 30
0.0
 10
28.461006
 20
135.543839
 30
0.0
 10
28.24162533333333
 20
135.8252616666666
 30
0.0
 10
28.02224466666667
 20
136.1066843333333
 30
0.0
 10
27.802864
 20
136.388107
 30
0.0
 10
27.60158533333333
 20
136.6680856666667
 30
0.0
 10
27.40030666666667
 20
136.9480643333333
 30
0.0
 10
27.199028
 20
137.228043
 30
0.0
 10
27.01147466666667
 20
137.5120393333333
 30
0.0
 10
26.82392133333333
 20
137.7960356666667
 30
0.0
 10
26.636368
 20
138.080032
 30
0.0
 10
26.465594
 20
138.362869
 30
0.0
 10
26.29482
 20
138.645706
 30
0.0
 10
26.124046
 20
138.928543
 30
0.0
 10
25.96705866666666
 20
139.2144773333333
 30
0.0
 10
25.81007133333334
 20
139.5004116666667
 30
0.0
 10
25.653084
 20
139.786346
 30
0.0
 10
25.511261
 20
140.0723213333333
 30
0.0
 10
25.369438
 20
140.3582966666667
 30
0.0
 10
25.227615
 20
140.644272
 30
0.0
 10
25.09946933333334
 20
140.9325766666667
 30
0.0
 10
24.97132366666667
 20
141.2208813333333
 30
0.0
 10
24.84317800000001
 20
141.509186
 30
0.0
 10
24.627322
 20
142.092026
 30
0.0
 10
24.411466
 20
142.674866
 30
0.0
 10
24.19561
 20
143.257706
 30
0.0
 10
24.03017666666667
 20
143.8550316666667
 30
0.0
 10
23.86474333333333
 20
144.4523573333333
 30
0.0
 10
23.69931
 20
145.049683
 30
0.0
 10
23.58077733333333
 20
145.6718753333333
 30
0.0
 10
23.46224466666667
 20
146.2940676666667
 30
0.0
 10
23.343712
 20
146.91626
 30
0.0
 10
23.268664
 20
147.582545
 30
0.0
 10
23.193616
 20
148.24883
 30
0.0
 10
23.118568
 20
148.915115
 30
0.0
 10
23.08302033333333
 20
149.6686346666666
 30
0.0
 10
23.04747266666667
 20
150.4221543333333
 30
0.0
 10
23.011925
 20
151.175674
 30
0.0
 10
23.00632
 20
151.9429013333333
 30
0.0
 10
23.000715
 20
152.7101286666666
 30
0.0
 10
22.99511
 20
153.477356
 30
0.0
  0
SPLINE
  5
6A
330
62
100
AcDbEntity
  8
1
  6
CONTINUOUS
 62
     7
100
AcDbSpline
210
0.0
220
0.0
230
1.0
 70
    11
 71
     3
 72
    53
 73
    49
 74
     0
 42
0.000000001
 43
0.0000000001
 40
-0.0875628342430675
 40
0.0
 40
0.0
 40
0.0
 40
0.08684920564801
 40
0.08684920564801
 40
0.08684920564801
 40
0.1516816895919079
 40
0.1516816895919079
 40
0.1516816895919079
 40
0.2003920337847698
 40
0.2003920337847698
 40
0.2003920337847698
 40
0.2500802136037577
 40
0.2500802136037577
 40
0.2500802136037577
 40
0.2990760041149536
 40
0.2990760041149536
 40
0.2990760041149536
 40
0.3477877576612887
 40
0.3477877576612887
 40
0.3477877576612887
 40
0.4126190649726373
 40
0.4126190649726373
 40
0.4126190649726373
 40
0.4994684111759938
 40
0.4994684111759938
 40
0.4994684111759938
 40
0.5870313848289
 40
0.5870313848289
 40
0.5870313848289
 40
0.6518625556502265
 40
0.6518625556502265
 40
0.6518625556502265
 40
0.7005744156826238
 40
0.7005744156826238
 40
0.7005744156826238
 40
0.7493869152505325
 40
0.7493869152505325
 40
0.7493869152505325
 40
0.7988943676185766
 40
0.7988943676185766
 40
0.7988943676185766
 40
0.8476048183005817
 40
0.8476048183005817
 40
0.8476048183005817
 40
0.9124371657569325
 40
0.9124371657569325
 40
0.9124371657569325
 40
1.0
 40
1.0
 40
1.0
 40
1.08684920564801
 10
217.050018
 20
133.430771
 30
0.0
 10
217.0634663333333
 20
133.6341806666667
 30
0.0
 10
217.0769146666667
 20
133.8375903333333
 30
0.0
 10
217.090363
 20
134.041
 30
0.0
 10
217.1323956666667
 20
134.1872556666667
 30
0.0
 10
217.1744283333333
 20
134.3335113333333
 30
0.0
 10
217.216461
 20
134.479767
 30
0.0
 10
217.292104
 20
134.565501
 30
0.0
 10
217.367747
 20
134.651235
 30
0.0
 10
217.44339
 20
134.736969
 30
0.0
 10
217.5560253333333
 20
134.7672273333333
 30
0.0
 10
217.6686606666667
 20
134.7974856666667
 30
0.0
 10
217.781296
 20
134.827744
 30
0.0
 10
217.8922476666667
 20
134.7974856666667
 30
0.0
 10
218.0031993333333
 20
134.7672273333333
 30
0.0
 10
218.114151
 20
134.736969
 30
0.0
 10
218.189799
 20
134.651235
 30
0.0
 10
218.265447
 20
134.565501
 30
0.0
 10
218.341095
 20
134.479767
 30
0.0
 10
218.3831176666667
 20
134.3335113333333
 30
0.0
 10
218.4251403333334
 20
134.1872556666667
 30
0.0
 10
218.467163
 20
134.041
 30
0.0
 10
218.4806163333334
 20
133.8375903333333
 30
0.0
 10
218.4940696666667
 20
133.6341806666667
 30
0.0
 10
218.507523
 20
133.430771
 30
0.0
 10
218.4940696666667
 20
133.2256826666666
 30
0.0
 10
218.4806163333334
 20
133.0205943333333
 30
0.0
 10
218.467163
 20
132.815506
 30
0.0
 10
218.4251403333334
 20
132.6692506666667
 30
0.0
 10
218.3831176666667
 20
132.5229953333333
 30
0.0
 10
218.341095
 20
132.37674
 30
0.0
 10
218.265447
 20
132.2910056666667
 30
0.0
 10
218.189799
 20
132.2052713333333
 30
0.0
 10
218.114151
 20
132.119537
 30
0.0
 10
218.0031993333333
 20
132.0909573333333
 30
0.0
 10
217.8922476666667
 20
132.0623776666667
 30
0.0
 10
217.781296
 20
132.033798
 30
0.0
 10
217.6686606666667
 20
132.0623776666667
 30
0.0
 10
217.5560253333333
 20
132.0909573333333
 30
0.0
 10
217.44339
 20
132.119537
 30
0.0
 10
217.367747
 20
132.2052713333333
 30
0.0
 10
217.292104
 20
132.2910056666667
 30
0.0
 10
217.216461
 20
132.37674
 30
0.0
 10
217.1744283333333
 20
132.5229953333333
 30
0.0
 10
217.1323956666667
 20
132.6692506666667
 30
0.0
 10
217.090363
 20
132.815506
 30
0.0
 10
217.0769146666667
 20
133.0205943333333
 30
0.0
 10
217.0634663333333
 20
133.2256826666666
 30
0.0
 10
217.050018
 20
133.430771
 30
0.0
  0
SPLINE
  5
6B
330
62
100
AcDbEntity
  8
1
  6
CONTINUOUS
 62
     7
100
AcDbSpline
210
0.0
220
0.0
230
1.0
 70
     8
 71
     3
 72
    11
 73
     7
 74
     0
 42
0.000000001
 43
0.0000000001
 40
0.0
 40
0.0
 40
0.0
 40
0.0
 40
0.5
 40
0.5
 40
0.5
 40
1.0
 40
1.0
 40
1.0
 40
1.0
 10
192.845139
 20
130.238754
 30
0.0
 10
192.2011873333333
 20
130.0662076666667
 30
0.0
 10
191.5572356666667
 20
129.8936613333333
 30
0.0
 10
190.913284
 20
129.721115
 30
0.0
 10
191.5572356666667
 20
129.5485686666667
 30
0.0
 10
192.2011873333333
 20
129.3760223333333
 30
0.0
 10
192.845139
 20
129.203476
 30
0.0
  0
SPLINE
  5
6C
330
62
100
AcDbEntity
  8
1
  6
CONTINUOUS
 62
     7
100
AcDbSpline
210
0.0
220
0.0
230
1.0
 70
    11
 71
     3
 72
   110
 73
   106
 74
     0
 42
0.000000001
 43
0.0000000001
 40
-0.0260302669876856
 40
0.0
 40
0.0
 40
0.0
 40
0.0237627964504428
 40
0.0237627964504428
 40
0.0237627964504428
 40
0.0463233226330153
 40
0.0463233226330153
 40
0.0463233226330153
 40
0.0693765855635634
 40
0.0693765855635634
 40
0.0693765855635634
 40
0.0954666423965412
 40
0.0954666423965412
 40
0.0954666423965412
 40
0.1241813939455325
 40
0.1241813939455325
 40
0.1241813939455325
 40
0.150200473107857
 40
0.150200473107857
 40
0.150200473107857
 40
0.1761326807254702
 40
0.1761326807254702
 40
0.1761326807254702
 40
0.2046233210883361
 40
0.2046233210883361
 40
0.2046233210883361
 40
0.2310841856878598
 40
0.2310841856878598
 40
0.2310841856878598
 40
0.2555381576525491
 40
0.2555381576525491
 40
0.2555381576525491
 40
0.2803110777953544
 40
0.2803110777953544
 40
0.2803110777953544
 40
0.3078747589104525
 40
0.3078747589104525
 40
0.3078747589104525
 40
0.3291334663917699
 40
0.3291334663917699
 40
0.3291334663917699
 40
0.3478107396831833
 40
0.3478107396831833
 40
0.3478107396831833
 40
0.4007333733231431
 40
0.4007333733231431
 40
0.4007333733231431
 40
0.485820907415313
 40
0.485820907415313
 40
0.485820907415313
 40
0.5087729337192161
 40
0.5087729337192161
 40
0.5087729337192161
 40
0.6126129557703421
 40
0.6126129557703421
 40
0.6126129557703421
 40
0.7167577802808885
 40
0.7167577802808885
 40
0.7167577802808885
 40
0.7391492132530166
 40
0.7391492132530166
 40
0.7391492132530166
 40
0.7600433953399266
 40
0.7600433953399266
 40
0.7600433953399266
 40
0.7812950624137007
 40
0.7812950624137007
 40
0.7812950624137007
 40
0.7994719386642206
 40
0.7994719386642206
 40
0.7994719386642206
 40
0.8158512256629028
 40
0.8158512256629028
 40
0.8158512256629028
 40
0.8320808567373355
 40
0.8320808567373355
 40
0.8320808567373355
 40
0.8499807028164119
 40
0.8499807028164119
 40
0.8499807028164119
 40
0.8678804942239895
 40
0.8678804942239895
 40
0.8678804942239895
 40
0.8842605247022723
 40
0.8842605247022723
 40
0.8842605247022723
 40
0.9004894522619954
 40
0.9004894522619954
 40
0.9004894522619954
 40
0.9183901184141685
 40
0.9183901184141685
 40
0.9183901184141685
 40
0.9333523282892947
 40
0.9333523282892947
 40
0.9333523282892947
 40
0.9465106570118167
 40
0.9465106570118167
 40
0.9465106570118167
 40
0.9596270333426075
 40
0.9596270333426075
 40
0.9596270333426075
 40
0.9739697330123144
 40
0.9739697330123144
 40
0.9739697330123144
 40
1.0
 40
1.0
 40
1.0
 40
1.023762796450443
 10
212.794556
 20
132.633942
 30
0.0
 10
212.831538
 20
132.496094
 30
0.0
 10
212.86852
 20
132.358246
 30
0.0
 10
212.905502
 20
132.220398
 30
0.0
 10
212.987874
 20
132.1128083333333
 30
0.0
 10
213.070246
 20
132.0052186666667
 30
0.0
 10
213.152618
 20
131.897629
 30
0.0
 10
213.273656
 20
131.8303886666667
 30
0.0
 10
213.394694
 20
131.7631483333333
 30
0.0
 10
213.515732
 20
131.695908
 30
0.0
 10
213.67039
 20
131.6706903333333
 30
0.0
 10
213.825048
 20
131.6454726666666
 30
0.0
 10
213.979706
 20
131.620255
 30
0.0
 10
214.1494956666667
 20
131.650513
 30
0.0
 10
214.3192853333333
 20
131.680771
 30
0.0
 10
214.489075
 20
131.711029
 30
0.0
 10
214.6218773333333
 20
131.793401
 30
0.0
 10
214.7546796666667
 20
131.875773
 30
0.0
 10
214.887482
 20
131.958145
 30
0.0
 10
214.9715373333333
 20
132.089269
 30
0.0
 10
215.0555926666667
 20
132.220393
 30
0.0
 10
215.139648
 20
132.351517
 30
0.0
 10
215.17159
 20
132.519628
 30
0.0
 10
215.203532
 20
132.687739
 30
0.0
 10
215.235474
 20
132.85585
 30
0.0
 10
215.206894
 20
133.0121866666667
 30
0.0
 10
215.178314
 20
133.1685233333333
 30
0.0
 10
215.149734
 20
133.32486
 30
0.0
 10
215.0690406666667
 20
133.4475813333333
 30
0.0
 10
214.9883473333333
 20
133.5703026666667
 30
0.0
 10
214.907654
 20
133.693024
 30
0.0
 10
214.7815756666667
 20
133.772034
 30
0.0
 10
214.6554973333333
 20
133.851044
 30
0.0
 10
214.529419
 20
133.930054
 30
0.0
 10
214.3663533333333
 20
133.9586336666667
 30
0.0
 10
214.2032876666667
 20
133.9872133333333
 30
0.0
 10
214.040222
 20
134.015793
 30
0.0
 10
213.9141436666667
 20
133.9956156666667
 30
0.0
 10
213.7880653333333
 20
133.9754383333333
 30
0.0
 10
213.661987
 20
133.955261
 30
0.0
 10
213.5644833333333
 20
133.8997903333333
 30
0.0
 10
213.4669796666667
 20
133.8443196666667
 30
0.0
 10
213.369476
 20
133.788849
 30
0.0
 10
213.4165443333333
 20
134.1032053333333
 30
0.0
 10
213.4636126666667
 20
134.4175616666667
 30
0.0
 10
213.510681
 20
134.731918
 30
0.0
 10
214.0217283333334
 20
134.731918
 30
0.0
 10
214.5327756666667
 20
134.731918
 30
0.0
 10
215.043823
 20
134.731918
 30
0.0
 10
215.043823
 20
134.869771
 30
0.0
 10
215.043823
 20
135.007624
 30
0.0
 10
215.043823
 20
135.145477
 30
0.0
 10
214.4201456666667
 20
135.145477
 30
0.0
 10
213.7964683333333
 20
135.145477
 30
0.0
 10
213.172791
 20
135.145477
 30
0.0
 10
213.0803326666667
 20
134.52684
 30
0.0
 10
212.9878743333334
 20
133.908203
 30
0.0
 10
212.895416
 20
133.289566
 30
0.0
 10
213.029902
 20
133.289566
 30
0.0
 10
213.164388
 20
133.289566
 30
0.0
 10
213.298874
 20
133.289566
 30
0.0
 10
213.3963726666667
 20
133.368576
 30
0.0
 10
213.4938713333333
 20
133.447586
 30
0.0
 10
213.59137
 20
133.526596
 30
0.0
 10
213.7157696666667
 20
133.5551756666667
 30
0.0
 10
213.8401693333334
 20
133.5837553333333
 30
0.0
 10
213.964569
 20
133.612335
 30
0.0
 10
214.072164
 20
133.5938413333333
 30
0.0
 10
214.179759
 20
133.5753476666667
 30
0.0
 10
214.287354
 20
133.556854
 30
0.0
 10
214.3697206666667
 20
133.5030616666666
 30
0.0
 10
214.4520873333333
 20
133.4492693333333
 30
0.0
 10
214.534454
 20
133.395477
 30
0.0
 10
214.586568
 20
133.3131
 30
0.0
 10
214.638682
 20
133.230723
 30
0.0
 10
214.690796
 20
133.148346
 30
0.0
 10
214.7092896666667
 20
133.0424396666667
 30
0.0
 10
214.7277833333333
 20
132.9365333333333
 30
0.0
 10
214.746277
 20
132.830627
 30
0.0
 10
214.7277833333333
 20
132.724721
 30
0.0
 10
214.7092896666667
 20
132.618815
 30
0.0
 10
214.690796
 20
132.512909
 30
0.0
 10
214.6370036666667
 20
132.430537
 30
0.0
 10
214.5832113333333
 20
132.348165
 30
0.0
 10
214.529419
 20
132.265793
 30
0.0
 10
214.447047
 20
132.213679
 30
0.0
 10
214.364675
 20
132.161565
 30
0.0
 10
214.282303
 20
132.109451
 30
0.0
 10
214.1763916666667
 20
132.0909573333333
 30
0.0
 10
214.0704803333333
 20
132.0724636666667
 30
0.0
 10
213.964569
 20
132.05397
 30
0.0
 10
213.875478
 20
132.0657396666666
 30
0.0
 10
213.786387
 20
132.0775093333333
 30
0.0
 10
213.697296
 20
132.089279
 30
0.0
 10
213.628367
 20
132.1279396666667
 30
0.0
 10
213.559438
 20
132.1666003333333
 30
0.0
 10
213.490509
 20
132.205261
 30
0.0
 10
213.4400786666667
 20
132.2657826666667
 30
0.0
 10
213.3896483333333
 20
132.3263043333334
 30
0.0
 10
213.339218
 20
132.386826
 30
0.0
 10
213.3140053333333
 20
132.469198
 30
0.0
 10
213.2887926666666
 20
132.55157
 30
0.0
 10
213.26358
 20
132.633942
 30
0.0
 10
213.1072386666666
 20
132.633942
 30
0.0
 10
212.9508973333333
 20
132.633942
 30
0.0
 10
212.794556
 20
132.633942
 30
0.0
  0
SPLINE
  5
6D
330
62
100
AcDbEntity
  8
1
  6
CONTINUOUS
 62
     7
100
AcDbSpline
210
0.0
220
0.0
230
1.0
 70
     8
 71
     3
 72
    11
 73
     7
 74
     0
 42
0.000000001
 43
0.0000000001
 40
0.0
 40
0.0
 40
0.0
 40
0.0
 40
0.5
 40
0.5
 40
0.5
 40
1.0
 40
1.0
 40
1.0
 40
1.0
 10
238.98143
 20
129.203476
 30
0.0
 10
239.6253813333334
 20
129.3760223333333
 30
0.0
 10
240.2693326666667
 20
129.5485686666667
 30
0.0
 10
240.913284
 20
129.721115
 30
0.0
 10
240.2693326666667
 20
129.8936613333333
 30
0.0
 10
239.6253813333334
 20
130.0662076666667
 30
0.0
 10
238.98143
 20
130.238754
 30
0.0
  0
SPLINE
  5
6E
330
62
100
AcDbEntity
  8
1
  6
CONTINUOUS
 62
     7
100
AcDbSpline
210
0.0
220
0.0
230
1.0
 70
    11
 71
     3
 72
   113
 73
   109
 74
     0
 42
0.000000001
 43
0.0000000001
 40
-0.1350741057938267
 40
0.0
 40
0.0
 40
0.0
 40
0.0203745678196525
 40
0.0203745678196525
 40
0.0203745678196525
 40
0.1106750785331958
 40
0.1106750785331958
 40
0.1106750785331958
 40
0.1243162031145252
 40
0.1243162031145252
 40
0.1243162031145252
 40
0.1348266736228829
 40
0.1348266736228829
 40
0.1348266736228829
 40
0.1430084874773062
 40
0.1430084874773062
 40
0.1430084874773062
 40
0.1508865652859025
 40
0.1508865652859025
 40
0.1508865652859025
 40
0.1572499205924861
 40
0.1572499205924861
 40
0.1572499205924861
 40
0.1636925456855381
 40
0.1636925456855381
 40
0.1636925456855381
 40
0.1724779082191029
 40
0.1724779082191029
 40
0.1724779082191029
 40
0.1838219655627855
 40
0.1838219655627855
 40
0.1838219655627855
 40
0.2786506789365431
 40
0.2786506789365431
 40
0.2786506789365431
 40
0.2977672852241005
 40
0.2977672852241005
 40
0.2977672852241005
 40
0.388067795937581
 40
0.388067795937581
 40
0.388067795937581
 40
0.4014588812566572
 40
0.4014588812566572
 40
0.4014588812566572
 40
0.4119693517650077
 40
0.4119693517650077
 40
0.4119693517650077
 40
0.4205063431125714
 40
0.4205063431125714
 40
0.4205063431125714
 40
0.4283851374959792
 40
0.4283851374959792
 40
0.4283851374959792
 40
0.4347484928025614
 40
0.4347484928025614
 40
0.4347484928025614
 40
0.4411906505166631
 40
0.4411906505166631
 40
0.4411906505166631
 40
0.461220080338171
 40
0.461220080338171
 40
0.461220080338171
 40
0.5560487937119296
 40
0.5560487937119296
 40
0.5560487937119296
 40
0.5764226133980719
 40
0.5764226133980719
 40
0.5764226133980719
 40
0.6697421918880712
 40
0.6697421918880712
 40
0.6697421918880712
 40
0.6891507350817117
 40
0.6891507350817117
 40
0.6891507350817117
 40
0.7045269908034443
 40
0.7045269908034443
 40
0.7045269908034443
 40
0.7166425846237217
 40
0.7166425846237217
 40
0.7166425846237217
 40
0.7301250092455928
 40
0.7301250092455928
 40
0.7301250092455928
 40
0.746271972691431
 40
0.746271972691431
 40
0.746271972691431
 40
0.7650497031830762
 40
0.7650497031830762
 40
0.7650497031830762
 40
0.7821433529634075
 40
0.7821433529634075
 40
0.7821433529634075
 40
0.7986087305764468
 40
0.7986087305764468
 40
0.7986087305764468
 40
0.8138028608667773
 40
0.8138028608667773
 40
0.8138028608667773
 40
0.830968264548271
 40
0.830968264548271
 40
0.830968264548271
 40
0.8453062928329436
 40
0.8453062928329436
 40
0.8453062928329436
 40
0.8649258942061733
 40
0.8649258942061733
 40
0.8649258942061733
 40
1.0
 40
1.0
 40
1.0
 40
1.020374567819653
 10
220.596863
 20
131.721115
 30
0.0
 10
220.7330323333333
 20
131.721115
 30
0.0
 10
220.8692016666667
 20
131.721115
 30
0.0
 10
221.005371
 20
131.721115
 30
0.0
 10
221.005371
 20
132.3246203333333
 30
0.0
 10
221.005371
 20
132.9281256666667
 30
0.0
 10
221.005371
 20
133.531631
 30
0.0
 10
221.0137736666667
 20
133.6224106666667
 30
0.0
 10
221.0221763333333
 20
133.7131903333333
 30
0.0
 10
221.030579
 20
133.80397
 30
0.0
 10
221.0557966666667
 20
133.869532
 30
0.0
 10
221.0810143333333
 20
133.935094
 30
0.0
 10
221.106232
 20
134.000656
 30
0.0
 10
221.1448976666667
 20
134.0393216666667
 30
0.0
 10
221.1835633333334
 20
134.0779873333333
 30
0.0
 10
221.222229
 20
134.116653
 30
0.0
 10
221.2726593333333
 20
134.1317846666667
 30
0.0
 10
221.3230896666667
 20
134.1469163333333
 30
0.0
 10
221.37352
 20
134.162048
 30
0.0
 10
221.4138643333333
 20
134.148595
 30
0.0
 10
221.4542086666667
 20
134.135142
 30
0.0
 10
221.494553
 20
134.121689
 30
0.0
 10
221.521454
 20
134.0880686666667
 30
0.0
 10
221.548355
 20
134.0544483333333
 30
0.0
 10
221.575256
 20
134.020828
 30
0.0
 10
221.5887043333333
 20
133.9636736666667
 30
0.0
 10
221.6021526666667
 20
133.9065193333333
 30
0.0
 10
221.615601
 20
133.849365
 30
0.0
 10
221.6206413333333
 20
133.773717
 30
0.0
 10
221.6256816666667
 20
133.698069
 30
0.0
 10
221.630722
 20
133.622421
 30
0.0
 10
221.630722
 20
132.9886523333333
 30
0.0
 10
221.630722
 20
132.3548836666667
 30
0.0
 10
221.630722
 20
131.721115
 30
0.0
 10
221.758484
 20
131.721115
 30
0.0
 10
221.886246
 20
131.721115
 30
0.0
 10
222.014008
 20
131.721115
 30
0.0
 10
222.014008
 20
132.3246203333333
 30
0.0
 10
222.014008
 20
132.9281256666667
 30
0.0
 10
222.014008
 20
133.531631
 30
0.0
 10
222.0224103333333
 20
133.6207323333333
 30
0.0
 10
222.0308126666667
 20
133.7098336666667
 30
0.0
 10
222.039215
 20
133.798935
 30
0.0
 10
222.0644326666667
 20
133.864497
 30
0.0
 10
222.0896503333333
 20
133.930059
 30
0.0
 10
222.114868
 20
133.995621
 30
0.0
 10
222.1552123333333
 20
134.035965
 30
0.0
 10
222.1955566666667
 20
134.076309
 30
0.0
 10
222.235901
 20
134.116653
 30
0.0
 10
222.2863363333333
 20
134.1317846666667
 30
0.0
 10
222.3367716666667
 20
134.1469163333333
 30
0.0
 10
222.387207
 20
134.162048
 30
0.0
 10
222.4275513333333
 20
134.148595
 30
0.0
 10
222.4678956666667
 20
134.135142
 30
0.0
 10
222.50824
 20
134.121689
 30
0.0
 10
222.535136
 20
134.0880686666667
 30
0.0
 10
222.562032
 20
134.0544483333333
 30
0.0
 10
222.588928
 20
134.020828
 30
0.0
 10
222.6057433333333
 20
133.8880256666667
 30
0.0
 10
222.6225586666667
 20
133.7552233333333
 30
0.0
 10
222.639374
 20
133.622421
 30
0.0
 10
222.639374
 20
132.9886523333333
 30
0.0
 10
222.639374
 20
132.3548836666667
 30
0.0
 10
222.639374
 20
131.721115
 30
0.0
 10
222.7755383333333
 20
131.721115
 30
0.0
 10
222.9117026666667
 20
131.721115
 30
0.0
 10
223.047867
 20
131.721115
 30
0.0
 10
223.047867
 20
132.3447976666667
 30
0.0
 10
223.047867
 20
132.9684803333333
 30
0.0
 10
223.047867
 20
133.592163
 30
0.0
 10
223.0394593333333
 20
133.7216033333333
 30
0.0
 10
223.0310516666667
 20
133.8510436666666
 30
0.0
 10
223.022644
 20
133.980484
 30
0.0
 10
222.995748
 20
134.079666
 30
0.0
 10
222.968852
 20
134.178848
 30
0.0
 10
222.941956
 20
134.27803
 30
0.0
 10
222.8881636666667
 20
134.3385516666667
 30
0.0
 10
222.8343713333333
 20
134.3990733333333
 30
0.0
 10
222.780579
 20
134.459595
 30
0.0
 10
222.6931613333333
 20
134.4814453333333
 30
0.0
 10
222.6057436666667
 20
134.5032956666667
 30
0.0
 10
222.518326
 20
134.525146
 30
0.0
 10
222.4157816666667
 20
134.491526
 30
0.0
 10
222.3132373333333
 20
134.457906
 30
0.0
 10
222.210693
 20
134.424286
 30
0.0
 10
222.131683
 20
134.3267823333333
 30
0.0
 10
222.052673
 20
134.2292786666667
 30
0.0
 10
221.973663
 20
134.131775
 30
0.0
 10
221.9114633333333
 20
134.2276
 30
0.0
 10
221.8492636666666
 20
134.323425
 30
0.0
 10
221.787064
 20
134.41925
 30
0.0
 10
221.682836
 20
134.4545486666667
 30
0.0
 10
221.578608
 20
134.4898473333333
 30
0.0
 10
221.47438
 20
134.525146
 30
0.0
 10
221.37856
 20
134.491526
 30
0.0
 10
221.28274
 20
134.457906
 30
0.0
 10
221.18692
 20
134.424286
 30
0.0
 10
221.121358
 20
134.3301443333333
 30
0.0
 10
221.055796
 20
134.2360026666667
 30
0.0
 10
220.990234
 20
134.141861
 30
0.0
 10
220.990234
 20
134.2376863333333
 30
0.0
 10
220.990234
 20
134.3335116666667
 30
0.0
 10
220.990234
 20
134.429337
 30
0.0
 10
220.8591103333333
 20
134.429337
 30
0.0
 10
220.7279866666667
 20
134.429337
 30
0.0
 10
220.596863
 20
134.429337
 30
0.0
 10
220.596863
 20
133.5265963333333
 30
0.0
 10
220.596863
 20
132.6238556666667
 30
0.0
 10
220.596863
 20
131.721115
 30
0.0
  0
ARC
  5
6F
330
62
100
AcDbEntity
  8
1
  6
CONTINUOUS
 62
     7
100
AcDbCircle
 10
68.300377
 20
13.602675
 30
0.0
 40
46.246601
100
AcDbArc
 50
92.540095
 51
168.936369
  0
ARC
  5
70
330
62
100
AcDbEntity
  8
1
  6
CONTINUOUS
 62
   172
100
AcDbCircle
 10
114.68473
 20
40.594156
 30
0.0
 40
12.71848478433794
100
AcDbArc
 50
14.574917
 51
111.642725
  0
ARC
  5
71
330
62
100
AcDbEntity
  8
1
  6
CONTINUOUS
 62
   172
100
AcDbCircle
 10
241.579959
 20
47.837168
 30
0.0
 40
4.999999999999983
100
AcDbArc
 50
233.130102
 51
306.869898
  0
ARC
  5
72
330
62
100
AcDbEntity
  8
1
  6
CONTINUOUS
 62
   172
100
AcDbCircle
 10
123.993927
 20
153.477363
 30
0.0
 40
3.0
100
AcDbArc
 50
270.0
 51
90.0
  0
ARC
  5
73
330
62
100
AcDbEntity
  8
1
  6
CONTINUOUS
 62
     7
100
AcDbCircle
 10
86.740906
 20
-62.082596
 30
0.0
 40
102.559952
100
AcDbArc
 50
64.488125
 51
90.000003
  0
ARC
  5
74
330
62
100
AcDbEntity
  8
1
  6
CONTINUOUS
 62
     7
100
AcDbCircle
 10
127.382629
 20
127.977356
 30
0.0
 40
5.000000000000001
100
AcDbArc
 50
270.000001
 51
341.682317
  0
ARC
  5
75
330
62
100
AcDbEntity
  8
1
  6
CONTINUOUS
 62
     7
100
AcDbCircle
 10
241.579956
 20
19.763407
 30
0.0
 40
37.51647199999999
100
AcDbArc
 50
108.654431
 51
143.330565
  0
ARC
  5
76
330
62
100
AcDbEntity
  8
1
  6
CONTINUOUS
 62
   172
100
AcDbCircle
 10
23.277058
 20
153.477356
 30
0.0
 40
74.72476964231831
100
AcDbArc
 50
335.910415
 51
355.394502
  0
ARC
  5
77
330
62
100
AcDbEntity
  8
1
  6
CONTINUOUS
 62
   172
100
AcDbCircle
 10
23.277058
 20
153.477356
 30
0.0
 40
74.72476964231831
100
AcDbArc
 50
4.605508
 51
24.089585
  0
ARC
  5
78
330
62
100
AcDbEntity
  8
1
  6
CONTINUOUS
 62
     7
100
AcDbCircle
 10
86.740906
 20
-0.308975
 30
0.0
 40
40.786331
100
AcDbArc
 50
90.000003
 51
146.035741
  0
ARC
  5
79
330
62
100
AcDbEntity
  8
1
  6
CONTINUOUS
 62
     7
100
AcDbCircle
 10
127.382629
 20
178.977356
 30
0.0
 40
4.999999999999995
100
AcDbArc
 50
18.317692
 51
90.000003
  0
ARC
  5
7A
330
62
100
AcDbEntity
  8
1
  6
CONTINUOUS
 62
     7
100
AcDbCircle
 10
70.93042
 20
-45.68322
 30
0.0
 40
105.590797
100
AcDbArc
 50
52.96187
 51
92.540095
  0
ARC
  5
7B
330
62
100
AcDbEntity
  8
1
  6
CONTINUOUS
 62
     7
100
AcDbCircle
 10
241.579956
 20
-123.064316
 30
0.0
 40
156.541672
100
AcDbArc
 50
78.76484
 51
101.235158
  0
ARC
  5
7C
330
62
100
AcDbEntity
  8
1
  6
CONTINUOUS
 62
   172
100
AcDbCircle
 10
87.228602
 20
153.502356
 30
0.0
 40
6.02000433461592
100
AcDbArc
 50
97.009794
 51
266.002213
  0
ARC
  5
7D
330
62
100
AcDbEntity
  8
1
  6
CONTINUOUS
 62
     7
100
AcDbCircle
 10
50.357536
 20
153.477356
 30
0.0
 40
86.136391
100
AcDbArc
 50
341.682317
 51
18.317692
  0
ARC
  5
7E
330
62
100
AcDbEntity
  8
1
  6
CONTINUOUS
 62
     7
100
AcDbCircle
 10
241.579956
 20
36.710987
 30
0.0
 40
22.177488
100
AcDbArc
 50
57.242182
 51
122.757815
  0
ARC
  5
7F
330
62
100
AcDbEntity
  8
1
  6
CONTINUOUS
 62
     7
100
AcDbCircle
 10
131.399292
 20
34.450665
 30
0.0
 40
5.201945999999997
100
AcDbArc
 50
348.065429
 51
52.96187
  0
ARC
  5
80
330
62
100
AcDbEntity
  8
1
  6
CONTINUOUS
 62
   172
100
AcDbCircle
 10
241.579959
 20
48.000109
 30
0.0
 40
4.999999999999926
100
AcDbArc
 50
53.130102
 51
126.869898
  0
ARC
  5
81
330
62
100
AcDbEntity
  8
1
  6
CONTINUOUS
 62
   172
100
AcDbCircle
 10
112.993927
 20
153.477363
 30
0.0
 40
3.0
100
AcDbArc
 50
90.0
 51
270.0
  0
ARC
  5
82
330
62
100
AcDbEntity
  8
1
  6
CONTINUOUS
 62
     7
100
AcDbCircle
 10
241.579956
 20
19.763407
 30
0.0
 40
37.51647199999999
100
AcDbArc
 50
36.66944
 51
71.345575
  0
ARC
  5
83
330
62
100
AcDbEntity
  8
1
  6
CONTINUOUS
 62
     7
100
AcDbCircle
 10
241.579956
 20
21.422501
 30
0.0
 40
38.417355
100
AcDbArc
 50
38.71165
 51
141.28835
  0
LINE
  5
84
330
62
100
AcDbEntity
  8
1
  6
CONTINUOUS
 62
   172
100
AcDbLine
 10
136.493927
 20
147.477363
 30
0.0
 11
86.493927
 21
147.477363
 31
0.0
  0
LINE
  5
85
330
62
100
AcDbEntity
  8
1
  6
CONTINUOUS
 62
     7
100
AcDbLine
 10
22.913284
 20
22.477358
 30
0.0
 11
134.330826
 21
22.477358
 31
0.0
  0
LINE
  5
86
330
62
100
AcDbEntity
  8
1
  6
CONTINUOUS
 62
     7
100
AcDbLine
 10
127.382629
 20
183.977356
 30
0.0
 11
52.913284
 21
183.977356
 31
0.0
  0
LINE
  5
87
330
62
100
AcDbEntity
  8
1
  6
CONTINUOUS
 62
   172
100
AcDbLine
 10
244.579959
 20
43.837168
 30
0.0
 11
244.579959
 21
52.000109
 31
0.0
  0
LINE
  5
88
330
62
100
AcDbEntity
  8
1
  6
CONTINUOUS
 62
     7
100
AcDbLine
 10
272.079956
 20
30.477358
 30
0.0
 11
269.079956
 21
22.477358
 31
0.0
  0
LINE
  5
89
330
62
100
AcDbEntity
  8
1
  6
CONTINUOUS
 62
   172
100
AcDbLine
 10
247.579959
 20
33.477356
 30
0.0
 11
247.579959
 21
58.061419
 31
0.0
  0
LINE
  5
8A
330
62
100
AcDbEntity
  8
1
  6
CONTINUOUS
 62
   172
100
AcDbLine
 10
112.993927
 20
150.477363
 30
0.0
 11
123.993927
 21
150.477363
 31
0.0
  0
LINE
  5
8B
330
62
100
AcDbEntity
  8
1
  6
CONTINUOUS
 62
     7
100
AcDbLine
 10
130.913284
 20
30.477358
 30
0.0
 11
129.916931
 21
22.230106
 31
0.0
  0
LINE
  5
8C
330
62
100
AcDbEntity
  8
1
  6
CONTINUOUS
 62
     7
100
AcDbLine
 10
271.557129
 20
45.448765
 30
0.0
 11
272.079956
 21
30.477358
 31
0.0
  0
LINE
  5
8D
330
62
100
AcDbEntity
  8
1
  6
CONTINUOUS
 62
     7
100
AcDbLine
 10
190.913284
 20
129.721115
 30
0.0
 11
240.913284
 21
129.721115
 31
0.0
  0
LINE
  5
8E
330
62
100
AcDbEntity
  8
1
  6
CONTINUOUS
 62
   172
100
AcDbLine
 10
136.493927
 20
159.477363
 30
0.0
 11
86.493927
 21
159.477363
 31
0.0
  0
LINE
  5
8F
330
62
100
AcDbEntity
  8
1
  6
CONTINUOUS
 62
   172
100
AcDbLine
 10
235.579959
 20
33.477356
 30
0.0
 11
235.579959
 21
58.06142
 31
0.0
  0
LINE
  5
90
330
62
100
AcDbEntity
  8
1
  6
CONTINUOUS
 62
     7
100
AcDbLine
 10
134.330826
 20
22.477358
 30
0.0
 11
136.488785
 21
33.374931
 31
0.0
  0
LINE
  5
91
330
62
100
AcDbEntity
  8
1
  6
CONTINUOUS
 62
   172
100
AcDbLine
 10
112.993927
 20
156.477363
 30
0.0
 11
124.672584
 21
156.477363
 31
0.0
  0
LINE
  5
92
330
62
100
AcDbEntity
  8
1
  6
CONTINUOUS
 62
     7
100
AcDbLine
 10
190.913284
 20
140.477356
 30
0.0
 11
190.913284
 21
127.721115
 31
0.0
  0
LINE
  5
93
330
62
100
AcDbEntity
  8
1
  6
CONTINUOUS
 62
     7
100
AcDbLine
 10
130.913284
 20
30.477358
 30
0.0
 11
136.488785
 21
33.374931
 31
0.0
  0
LINE
  5
94
330
62
100
AcDbEntity
  8
1
  6
CONTINUOUS
 62
     7
100
AcDbLine
 10
97.413284
 20
56.532608
 30
0.0
 11
97.413284
 21
39.920563
 31
0.0
  0
LINE
  5
95
330
62
100
AcDbEntity
  8
1
  6
CONTINUOUS
 62
     7
100
AcDbLine
 10
211.602753
 20
45.448765
 30
0.0
 11
211.079956
 21
30.477358
 31
0.0
  0
LINE
  5
96
330
62
100
AcDbEntity
  8
1
  6
CONTINUOUS
 62
     7
100
AcDbLine
 10
127.382629
 20
122.977356
 30
0.0
 11
52.913284
 21
122.977356
 31
0.0
  0
LINE
  5
97
330
62
100
AcDbEntity
  8
1
  6
CONTINUOUS
 62
     7
100
AcDbLine
 10
190.913284
 20
142.477356
 30
0.0
 11
240.913284
 21
142.477356
 31
0.0
  0
LINE
  5
98
330
62
100
AcDbEntity
  8
1
  6
CONTINUOUS
 62
     7
100
AcDbLine
 10
269.079956
 20
22.477358
 30
0.0
 11
214.079956
 21
22.477358
 31
0.0
  0
LINE
  5
99
330
62
100
AcDbEntity
  8
1
  6
CONTINUOUS
 62
     7
100
AcDbLine
 10
240.913284
 20
140.477356
 30
0.0
 11
240.913284
 21
127.721115
 31
0.0
  0
LINE
  5
9A
330
62
100
AcDbEntity
  8
1
  6
CONTINUOUS
 62
     7
100
AcDbLine
 10
211.079956
 20
30.477358
 30
0.0
 11
214.079956
 21
22.477358
 31
0.0
  0
LINE
  5
9B
330
62
100
AcDbEntity
  8
1
  6
CONTINUOUS
 62
   172
100
AcDbLine
 10
238.579959
 20
43.837168
 30
0.0
 11
238.579959
 21
52.000109
 31
0.0
  0
ENDBLK
  5
64
330
62
100
AcDbEntity
  8
0
100
AcDbBlockEnd
  0
ENDSEC
  0
SECTION
  2
ENTITIES
  0
INSERT
  5
BE
330
1F
100
AcDbEntity
  8
1
  6
CONTINUOUS
 62
   172
370
    -3
100
AcDbBlockReference
  2
MOUSE_OUTLINE_DXF
 10
0.0
 20
0.0
 30
0.0
  0
VIEWPORT
  5
4F
330
4C
100
AcDbEntity
 67
     1
  8
0
100
AcDbViewport
 10
165.399337
 20
100.552686
 30
0.0
 40
297.0
 41
210.0
 68
     1
 69
     1
 12
165.399337
 22
100.552686
 13
0.0
 23
0.0
 14
1.0
 24
1.0
 15
1.0
 25
1.0
 16
0.0
 26
0.0
 36
1.0
 17
0.0
 27
0.0
 37
0.0
 42
39.671651
 43
0.0
 44
0.0
 45
210.0
 50
0.0
 51
0.0
 72
   100
331
42
 90
   557152
  1

281
     0
 71
     1
 74
     0
110
0.0
120
0.0
130
0.0
111
1.0
121
0.0
131
0.0
112
0.0
122
1.0
132
0.0
 79
     0
146
0.0
170
     0
  0
VIEWPORT
  5
50
330
4C
100
AcDbEntity
 67
     1
  8
0
100
AcDbViewport
 10
147.610561
 20
99.218492
 30
0.0
 40
261.866672
 41
174.44725
 68
     2
 69
     2
 12
147.49662
 22
103.103731
 13
0.0
 23
0.0
 14
1.0
 24
1.0
 15
1.0
 25
1.0
 16
0.0
 26
0.0
 36
1.0
 17
0.0
 27
0.0
 37
0.0
 42
39.671651
 43
0.0
 44
0.0
 45
174.44725
 50
0.0
 51
0.0
 72
   100
 90
   557152
  1

281
     0
 71
     1
 74
     0
110
0.0
120
0.0
130
0.0
111
1.0
121
0.0
131
0.0
112
0.0
122
1.0
132
0.0
 79
     0
146
0.0
170
     0
  0
ENDSEC
  0
SECTION
  2
OBJECTS
  0
DICTIONARY
  5
C
330
0
100
AcDbDictionary
281
     1
  3
ACAD_GROUP
350
D
  3
ACAD_LAYOUT
350
1A
  3
ACAD_MLEADERSTYLE
350
C2
  3
ACAD_MLINESTYLE
350
17
  3
ACAD_PLOTSETTINGS
350
19
  3
ACAD_PLOTSTYLENAME
350
E
  3
ACAD_SCALELIST
350
9C
  3
ACAD_TABLESTYLE
350
C1
  3
ACAD_VISUALSTYLE
350
2A
  3
AcDbVariableDictionary
350
BF
  0
DICTIONARY
  5
D
102
{ACAD_REACTORS
330
C
102
}
330
C
100
AcDbDictionary
281
     1
  0
DICTIONARY
  5
1A
102
{ACAD_REACTORS
330
C
102
}
330
C
100
AcDbDictionary
281
     1
  3
Model
350
22
  3
Sheet 1
350
51
  0
DICTIONARY
  5
C2
102
{ACAD_REACTORS
330
C
102
}
330
C
100
AcDbDictionary
281
     1
  0
DICTIONARY
  5
17
102
{ACAD_REACTORS
330
C
102
}
330
C
100
AcDbDictionary
281
     1
  3
Standard
350
18
  0
DICTIONARY
  5
19
102
{ACAD_REACTORS
330
C
102
}
330
C
100
AcDbDictionary
281
     1
  0
ACDBDICTIONARYWDFLT
  5
E
102
{ACAD_REACTORS
330
C
102
}
330
C
100
AcDbDictionary
281
     1
  3
Normal
350
F
100
AcDbDictionaryWithDefault
340
F
  0
DICTIONARY
  5
9C
102
{ACAD_REACTORS
330
C
102
}
330
C
100
AcDbDictionary
281
     1
  3
A0
350
9D
  3
A1
350
9E
  3
A2
350
9F
  3
A3
350
A0
  3
A4
350
A1
  3
A5
350
A2
  3
A6
350
A3
  3
A7
350
A4
  3
A8
350
A5
  3
A9
350
A6
  3
B0
350
A7
  3
B1
350
A8
  3
B2
350
A9
  3
B3
350
AA
  3
B4
350
AB
  3
B5
350
AC
  3
B6
350
AD
  3
B7
350
AE
  3
B8
350
AF
  3
B9
350
B0
  3
C0
350
B1
  3
C1
350
B2
  3
C2
350
B3
  3
C3
350
B4
  3
C4
350
B5
  3
C5
350
B6
  3
C6
350
B7
  3
C7
350
B8
  3
C8
350
B9
  3
C9
350
BA
  3
D0
350
BB
  3
D1
350
BC
  3
D2
350
BD
  0
DICTIONARY
  5
C1
102
{ACAD_REACTORS
330
C
102
}
330
C
100
AcDbDictionary
281
     1
  0
DICTIONARY
  5
2A
102
{ACAD_REACTORS
330
C
102
}
330
C
100
AcDbDictionary
281
     1
  3
2dWireframe
350
2F
  3
3D Hidden
350
31
  3
3dWireframe
350
30
  3
Basic
350
32
  3
Brighten
350
36
  3
ColorChange
350
3A
  3
Conceptual
350
34
  3
Dim
350
35
  3
Facepattern
350
39
  3
Flat
350
2B
  3
FlatWithEdges
350
2C
  3
Gouraud
350
2D
  3
GouraudWithEdges
350
2E
  3
Linepattern
350
38
  3
Realistic
350
33
  3
Thicken
350
37
  0
DICTIONARY
  5
BF
102
{ACAD_REACTORS
330
C
102
}
330
C
100
AcDbDictionary
281
     1
  3
CANNOSCALE
350
C0
  0
LAYOUT
  5
22
102
{ACAD_REACTORS
330
1A
102
}
330
1A
100
AcDbPlotSettings
  1

  2
none_device
  4

  6

 40
0.0
 41
0.0
 42
0.0
 43
0.0
 44
0.0
 45
0.0
 46
0.0
 47
0.0
 48
0.0
 49
0.0
140
0.0
141
0.0
142
1.0
143
1.0
 70
  1712
 72
     0
 73
     0
 74
     0
  7

 75
     0
 76
     0
 77
     2
 78
   300
147
1.0
148
0.0
149
0.0
100
AcDbLayout
  1
Model
 70
     1
 71
     0
 10
-0.5
 20
-0.5
 11
5.0
 21
5.0
 12
0.0
 22
0.0
 32
0.0
 14
-0.5
 24
-0.5
 34
-0.5
 15
5.0
 25
5.0
 35
5.0
146
0.0
 13
0.0
 23
0.0
 33
0.0
 16
1.0
 26
0.0
 36
0.0
 17
0.0
 27
1.0
 37
0.0
 76
     0
330
1F
331
29
  0
LAYOUT
  5
51
102
{ACAD_REACTORS
330
1A
102
}
330
1A
100
AcDbPlotSettings
  1

  2
none_device
  4
ISO_B4_(354.00_x_250.00_MM)
  6

 40
7.5
 41
20.0
 42
7.5
 43
20.0
 44
354.0
 45
250.0
 46
0.0
 47
0.0
 48
0.0
 49
0.0
140
337.0
141
250.0
142
1.0
143
1.0
 70
   672
 72
     1
 73
     0
 74
     1
  7

 75
    16
 76
     0
 77
     2
 78
   300
147
1.0
148
0.0
149
0.0
100
AcDbLayout
  1
Sheet 1
 70
     1
 71
     1
 10
0.0
 20
0.0
 11
297.0
 21
210.0
 12
0.0
 22
0.0
 32
0.0
 14
0.0
 24
0.0
 34
0.0
 15
297.0
 25
210.0
 35
0.0
146
0.0
 13
0.0
 23
0.0
 33
0.0
 16
1.0
 26
0.0
 36
0.0
 17
0.0
 27
1.0
 37
0.0
 76
     0
330
4C
331
4F
  0
MLINESTYLE
  5
18
102
{ACAD_REACTORS
330
17
102
}
330
17
100
AcDbMlineStyle
  2
Standard
 70
     0
  3

 62
   256
 51
90.0
 52
90.0
 71
     2
 49
0.5
 62
   256
  6
BYLAYER
 49
-0.5
 62
   256
  6
BYLAYER
  0
ACDBPLACEHOLDER
  5
F
102
{ACAD_REACTORS
330
E
102
}
330
E
  0
SCALE
  5
9D
102
{ACAD_REACTORS
330
9C
102
}
330
9C
100
AcDbScale
 70
     0
300
1:1
140
1.0
141
1.0
290
     1
  0
SCALE
  5
9E
102
{ACAD_REACTORS
330
9C
102
}
330
9C
100
AcDbScale
 70
     0
300
1:2
140
1.0
141
2.0
290
     0
  0
SCALE
  5
9F
102
{ACAD_REACTORS
330
9C
102
}
330
9C
100
AcDbScale
 70
     0
300
1:4
140
1.0
141
4.0
290
     0
  0
SCALE
  5
A0
102
{ACAD_REACTORS
330
9C
102
}
330
9C
100
AcDbScale
 70
     0
300
1:5
140
1.0
141
5.0
290
     0
  0
SCALE
  5
A1
102
{ACAD_REACTORS
330
9C
102
}
330
9C
100
AcDbScale
 70
     0
300
1:8
140
1.0
141
8.0
290
     0
  0
SCALE
  5
A2
102
{ACAD_REACTORS
330
9C
102
}
330
9C
100
AcDbScale
 70
     0
300
1:10
140
1.0
141
10.0
290
     0
  0
SCALE
  5
A3
102
{ACAD_REACTORS
330
9C
102
}
330
9C
100
AcDbScale
 70
     0
300
1:16
140
1.0
141
16.0
290
     0
  0
SCALE
  5
A4
102
{ACAD_REACTORS
330
9C
102
}
330
9C
100
AcDbScale
 70
     0
300
1:20
140
1.0
141
20.0
290
     0
  0
SCALE
  5
A5
102
{ACAD_REACTORS
330
9C
102
}
330
9C
100
AcDbScale
 70
     0
300
1:30
140
1.0
141
30.0
290
     0
  0
SCALE
  5
A6
102
{ACAD_REACTORS
330
9C
102
}
330
9C
100
AcDbScale
 70
     0
300
1:40
140
1.0
141
40.0
290
     0
  0
SCALE
  5
A7
102
{ACAD_REACTORS
330
9C
102
}
330
9C
100
AcDbScale
 70
     0
300
1:50
140
1.0
141
50.0
290
     0
  0
SCALE
  5
A8
102
{ACAD_REACTORS
330
9C
102
}
330
9C
100
AcDbScale
 70
     0
300
1:100
140
1.0
141
100.0
290
     0
  0
SCALE
  5
A9
102
{ACAD_REACTORS
330
9C
102
}
330
9C
100
AcDbScale
 70
     0
300
2:1
140
2.0
141
1.0
290
     0
  0
SCALE
  5
AA
102
{ACAD_REACTORS
330
9C
102
}
330
9C
100
AcDbScale
 70
     0
300
4:1
140
4.0
141
1.0
290
     0
  0
SCALE
  5
AB
102
{ACAD_REACTORS
330
9C
102
}
330
9C
100
AcDbScale
 70
     0
300
8:1
140
8.0
141
1.0
290
     0
  0
SCALE
  5
AC
102
{ACAD_REACTORS
330
9C
102
}
330
9C
100
AcDbScale
 70
     0
300
10:1
140
10.0
141
1.0
290
     0
  0
SCALE
  5
AD
102
{ACAD_REACTORS
330
9C
102
}
330
9C
100
AcDbScale
 70
     0
300
100:1
140
100.0
141
1.0
290
     0
  0
SCALE
  5
AE
102
{ACAD_REACTORS
330
9C
102
}
330
9C
100
AcDbScale
 70
     0
300
1/128" = 1'-0"
140
0.007812
141
12.0
290
     0
  0
SCALE
  5
AF
102
{ACAD_REACTORS
330
9C
102
}
330
9C
100
AcDbScale
 70
     0
300
1/64" = 1'-0"
140
0.015625
141
12.0
290
     0
  0
SCALE
  5
B0
102
{ACAD_REACTORS
330
9C
102
}
330
9C
100
AcDbScale
 70
     0
300
1/32" = 1'-0"
140
0.03125
141
12.0
290
     0
  0
SCALE
  5
B1
102
{ACAD_REACTORS
330
9C
102
}
330
9C
100
AcDbScale
 70
     0
300
1/16" = 1'-0"
140
0.0625
141
12.0
290
     0
  0
SCALE
  5
B2
102
{ACAD_REACTORS
330
9C
102
}
330
9C
100
AcDbScale
 70
     0
300
3/32" = 1'-0"
140
0.09375
141
12.0
290
     0
  0
SCALE
  5
B3
102
{ACAD_REACTORS
330
9C
102
}
330
9C
100
AcDbScale
 70
     0
300
1/8" = 1'-0"
140
0.125
141
12.0
290
     0
  0
SCALE
  5
B4
102
{ACAD_REACTORS
330
9C
102
}
330
9C
100
AcDbScale
 70
     0
300
3/16" = 1'-0"
140
0.1875
141
12.0
290
     0
  0
SCALE
  5
B5
102
{ACAD_REACTORS
330
9C
102
}
330
9C
100
AcDbScale
 70
     0
300
1/4" = 1'-0"
140
0.25
141
12.0
290
     0
  0
SCALE
  5
B6
102
{ACAD_REACTORS
330
9C
102
}
330
9C
100
AcDbScale
 70
     0
300
3/8" = 1'-0"
140
0.375
141
12.0
290
     0
  0
SCALE
  5
B7
102
{ACAD_REACTORS
330
9C
102
}
330
9C
100
AcDbScale
 70
     0
300
1/2" = 1'-0"
140
0.5
141
12.0
290
     0
  0
SCALE
  5
B8
102
{ACAD_REACTORS
330
9C
102
}
330
9C
100
AcDbScale
 70
     0
300
3/4" = 1'-0"
140
0.75
141
12.0
290
     0
  0
SCALE
  5
B9
102
{ACAD_REACTORS
330
9C
102
}
330
9C
100
AcDbScale
 70
     0
300
1" = 1'-0"
140
1.0
141
12.0
290
     0
  0
SCALE
  5
BA
102
{ACAD_REACTORS
330
9C
102
}
330
9C
100
AcDbScale
 70
     0
300
1-1/2" = 1'-0"
140
1.5
141
12.0
290
     0
  0
SCALE
  5
BB
102
{ACAD_REACTORS
330
9C
102
}
330
9C
100
AcDbScale
 70
     0
300
3" = 1'-0"
140
3.0
141
12.0
290
     0
  0
SCALE
  5
BC
102
{ACAD_REACTORS
330
9C
102
}
330
9C
100
AcDbScale
 70
     0
300
6" = 1'-0"
140
6.0
141
12.0
290
     0
  0
SCALE
  5
BD
102
{ACAD_REACTORS
330
9C
102
}
330
9C
100
AcDbScale
 70
     0
300
1'-0" = 1'-0"
140
12.0
141
12.0
290
     0
  0
VISUALSTYLE
  5
2F
102
{ACAD_REACTORS
330
2A
102
}
330
2A
100
AcDbVisualStyle
  2
2dWireframe
 70
     4
 71
     0
 72
     2
 73
     0
 90
        0
 40
-0.6
 41
-30.0
 62
     5
 63
     7
421
 16777215
 74
     1
 91
        4
 64
     7
 65
   257
 75
     1
175
     1
 42
1.0
 92
        0
 66
   257
 43
1.0
 76
     1
 77
     6
 78
     2
 67
     7
 79
     5
170
     0
171
     0
290
     0
174
     0
 93
        1
 44
0.0
173
     0
291
     0
 45
0.0
1001
ACAD
1000
AcDbSavedByObjectVersion
1070
     0
  0
VISUALSTYLE
  5
31
102
{ACAD_REACTORS
330
2A
102
}
330
2A
100
AcDbVisualStyle
  2
3D Hidden
 70
     6
 71
     1
 72
     2
 73
     2
 90
        0
 40
-0.6
 41
-30.0
 62
     5
 63
     7
421
 16777215
 74
     2
 91
        2
 64
     7
 65
   257
 75
     2
175
     1
 42
40.0
 92
        0
 66
   257
 43
1.0
 76
     1
 77
     6
 78
     2
 67
     7
 79
     3
170
     0
171
     0
290
     0
174
     0
 93
        1
 44
0.0
173
     0
291
     0
 45
0.0
1001
ACAD
1000
AcDbSavedByObjectVersion
1070
     0
  0
VISUALSTYLE
  5
30
102
{ACAD_REACTORS
330
2A
102
}
330
2A
100
AcDbVisualStyle
  2
3dWireframe
 70
     5
 71
     0
 72
     2
 73
     0
 90
        0
 40
-0.6
 41
-30.0
 62
     5
 63
     7
421
 16777215
 74
     1
 91
        4
 64
     7
 65
   257
 75
     1
175
     1
 42
1.0
 92
        0
 66
   257
 43
1.0
 76
     1
 77
     6
 78
     2
 67
     7
 79
     5
170
     0
171
     0
290
     0
174
     0
 93
        1
 44
0.0
173
     0
291
     0
 45
0.0
1001
ACAD
1000
AcDbSavedByObjectVersion
1070
     0
  0
VISUALSTYLE
  5
32
102
{ACAD_REACTORS
330
2A
102
}
330
2A
100
AcDbVisualStyle
  2
Basic
 70
     7
 71
     1
 72
     0
 73
     1
 90
        0
 40
-0.6
 41
-30.0
 62
     5
 63
     7
421
 16777215
 74
     0
 91
        4
 64
     7
 65
   257
 75
     1
175
     1
 42
1.0
 92
        8
 66
     7
 43
1.0
 76
     1
 77
     6
 78
     2
 67
     7
 79
     5
170
     0
171
     0
290
     0
174
     0
 93
        1
 44
0.0
173
     0
291
     1
 45
0.0
1001
ACAD
1000
AcDbSavedByObjectVersion
1070
     0
  0
VISUALSTYLE
  5
36
102
{ACAD_REACTORS
330
2A
102
}
330
2A
100
AcDbVisualStyle
  2
Brighten
 70
    12
 71
     2
 72
     2
 73
     0
 90
        0
 40
-0.6
 41
-30.0
 62
     5
 63
     7
421
 16777215
 74
     1
 91
        4
 64
     7
 65
   257
 75
     1
175
     1
 42
1.0
 92
        8
 66
     7
 43
1.0
 76
     1
 77
     6
 78
     2
 67
     7
 79
     5
170
     0
171
     0
290
     0
174
     0
 93
        1
 44
50.0
173
     0
291
     1
 45
0.0
1001
ACAD
1000
AcDbSavedByObjectVersion
1070
     0
  0
VISUALSTYLE
  5
3A
102
{ACAD_REACTORS
330
2A
102
}
330
2A
100
AcDbVisualStyle
  2
ColorChange
 70
    16
 71
     2
 72
     2
 73
     3
 90
        0
 40
-0.6
 41
-30.0
 62
     5
 63
     8
421
  8421504
 74
     1
 91
        4
 64
     7
 65
   257
 75
     1
175
     1
 42
1.0
 92
        8
 66
     8
424
  8421504
 43
1.0
 76
     1
 77
     6
 78
     2
 67
     7
 79
     5
170
     0
171
     0
290
     0
174
     0
 93
        1
 44
0.0
173
     0
291
     1
 45
0.0
1001
ACAD
1000
AcDbSavedByObjectVersion
1070
     0
  0
VISUALSTYLE
  5
34
102
{ACAD_REACTORS
330
2A
102
}
330
2A
100
AcDbVisualStyle
  2
Conceptual
 70
     9
 71
     3
 72
     2
 73
     0
 90
        0
 40
-0.6
 41
-30.0
 62
     5
 63
     7
421
 16777215
 74
     2
 91
        2
 64
     7
 65
   257
 75
     1
175
     1
 42
40.0
 92
        8
 66
     7
 43
1.0
 76
     1
 77
     6
 78
     2
 67
     7
 79
     3
170
     0
171
     0
290
     0
174
     0
 93
        1
 44
0.0
173
     0
291
     0
 45
0.0
1001
ACAD
1000
AcDbSavedByObjectVersion
1070
     0
  0
VISUALSTYLE
  5
35
102
{ACAD_REACTORS
330
2A
102
}
330
2A
100
AcDbVisualStyle
  2
Dim
 70
    11
 71
     2
 72
     2
 73
     0
 90
        0
 40
-0.6
 41
-30.0
 62
     5
 63
     7
421
 16777215
 74
     1
 91
        4
 64
     7
 65
   257
 75
     1
175
     1
 42
1.0
 92
        8
 66
     7
 43
1.0
 76
     1
 77
     6
 78
     2
 67
     7
 79
     5
170
     0
171
     0
290
     0
174
     0
 93
        1
 44
-50.0
173
     0
291
     1
 45
0.0
1001
ACAD
1000
AcDbSavedByObjectVersion
1070
     0
  0
VISUALSTYLE
  5
39
102
{ACAD_REACTORS
330
2A
102
}
330
2A
100
AcDbVisualStyle
  2
Facepattern
 70
    15
 71
     2
 72
     2
 73
     0
 90
        0
 40
-0.6
 41
-30.0
 62
     5
 63
     7
421
 16777215
 74
     1
 91
        4
 64
     7
 65
   257
 75
     1
175
     1
 42
1.0
 92
        8
 66
     7
 43
1.0
 76
     1
 77
     6
 78
     2
 67
     7
 79
     5
170
     0
171
     0
290
     0
174
     0
 93
        1
 44
0.0
173
     0
291
     1
 45
0.0
1001
ACAD
1000
AcDbSavedByObjectVersion
1070
     0
  0
VISUALSTYLE
  5
2B
102
{ACAD_REACTORS
330
2A
102
}
330
2A
100
AcDbVisualStyle
  2
Flat
 70
     0
 71
     2
 72
     1
 73
     1
 90
        2
 40
-0.6
 41
30.0
 62
     5
 63
     7
421
 16777215
 74
     0
 91
        4
 64
     7
 65
   257
 75
     1
175
     1
 42
1.0
 92
        8
 66
     7
 43
1.0
 76
     1
 77
     6
 78
     2
 67
     7
 79
     5
170
     0
171
     0
290
     0
174
     0
 93
       13
 44
0.0
173
     0
291
     1
 45
0.0
1001
ACAD
1000
AcDbSavedByObjectVersion
1070
     0
  0
VISUALSTYLE
  5
2C
102
{ACAD_REACTORS
330
2A
102
}
330
2A
100
AcDbVisualStyle
  2
FlatWithEdges
 70
     1
 71
     2
 72
     1
 73
     1
 90
        2
 40
-0.6
 41
30.0
 62
     5
 63
     7
421
 16777215
 74
     1
 91
        4
 64
     7
 65
   257
 75
     1
175
     1
 42
1.0
 92
        0
 66
   257
 43
1.0
 76
     1
 77
     6
 78
     2
 67
     7
 79
     5
170
     0
171
     0
290
     0
174
     0
 93
       13
 44
0.0
173
     0
291
     1
 45
0.0
1001
ACAD
1000
AcDbSavedByObjectVersion
1070
     0
  0
VISUALSTYLE
  5
2D
102
{ACAD_REACTORS
330
2A
102
}
330
2A
100
AcDbVisualStyle
  2
Gouraud
 70
     2
 71
     2
 72
     2
 73
     1
 90
        2
 40
-0.6
 41
30.0
 62
     5
 63
     7
421
 16777215
 74
     0
 91
        4
 64
     7
 65
   257
 75
     1
175
     1
 42
1.0
 92
        0
 66
     7
 43
1.0
 76
     1
 77
     6
 78
     2
 67
     7
 79
     5
170
     0
171
     0
290
     0
174
     0
 93
       13
 44
0.0
173
     0
291
     1
 45
0.0
1001
ACAD
1000
AcDbSavedByObjectVersion
1070
     0
  0
VISUALSTYLE
  5
2E
102
{ACAD_REACTORS
330
2A
102
}
330
2A
100
AcDbVisualStyle
  2
GouraudWithEdges
 70
     3
 71
     2
 72
     2
 73
     1
 90
        2
 40
-0.6
 41
30.0
 62
     5
 63
     7
421
 16777215
 74
     1
 91
        4
 64
     7
 65
   257
 75
     1
175
     1
 42
1.0
 92
        0
 66
   257
 43
1.0
 76
     1
 77
     6
 78
     2
 67
     7
 79
     5
170
     0
171
     0
290
     0
174
     0
 93
       13
 44
0.0
173
     0
291
     1
 45
0.0
1001
ACAD
1000
AcDbSavedByObjectVersion
1070
     0
  0
VISUALSTYLE
  5
38
102
{ACAD_REACTORS
330
2A
102
}
330
2A
100
AcDbVisualStyle
  2
Linepattern
 70
    14
 71
     2
 72
     2
 73
     0
 90
        0
 40
-0.6
 41
-30.0
 62
     5
 63
     7
421
 16777215
 74
     1
 91
        4
 64
     7
 65
   257
 75
     7
175
     7
 42
1.0
 92
        8
 66
     7
 43
1.0
 76
     1
 77
     6
 78
     2
 67
     7
 79
     5
170
     0
171
     0
290
     0
174
     0
 93
        1
 44
0.0
173
     0
291
     1
 45
0.0
1001
ACAD
1000
AcDbSavedByObjectVersion
1070
     0
  0
VISUALSTYLE
  5
33
102
{ACAD_REACTORS
330
2A
102
}
330
2A
100
AcDbVisualStyle
  2
Realistic
 70
     8
 71
     2
 72
     2
 73
     0
 90
        0
 40
-0.6
 41
-30.0
 62
     5
 63
     7
421
 16777215
 74
     1
 91
        0
 64
     7
 65
   257
 75
     1
175
     1
 42
1.0
 92
        8
 66
     8
424
  7895160
 43
1.0
 76
     1
 77
     6
 78
     2
 67
     7
 79
     5
170
     0
171
     0
290
     0
174
     0
 93
       13
 44
0.0
173
     0
291
     0
 45
0.0
1001
ACAD
1000
AcDbSavedByObjectVersion
1070
     0
  0
VISUALSTYLE
  5
37
102
{ACAD_REACTORS
330
2A
102
}
330
2A
100
AcDbVisualStyle
  2
Thicken
 70
    13
 71
     2
 72
     2
 73
     0
 90
        0
 40
-0.6
 41
-30.0
 62
     5
 63
     7
421
 16777215
 74
     1
 91
        4
 64
     7
 65
   257
 75
     1
175
     1
 42
1.0
 92
       12
 66
     7
 43
1.0
 76
     1
 77
     6
 78
     2
 67
     7
 79
     5
170
     0
171
     0
290
     0
174
     0
 93
        1
 44
0.0
173
     0
291
     1
 45
0.0
1001
ACAD
1000
AcDbSavedByObjectVersion
1070
     0
  0
DICTIONARYVAR
  5
C0
102
{ACAD_REACTORS
330
BF
102
}
330
BF
100
DictionaryVariables
280
     0
  1
1:1
  0
ENDSEC
  0
EOF
